<svg width="600" height="600" viewBox="0 0 600 600" fill="none" xmlns="http://www.w3.org/2000/svg">
<rect x="0.999985" width="599" height="600" fill="white"/>
<rect width="600" height="600" fill="url(#paint0_linear)"/>
<path d="M130.738 120H152.213C153.707 120 154.732 119.033 154.732 117.627C154.732 116.221 153.707 115.254 152.213 115.254H133.375V100.723H151.158C152.623 100.723 153.648 99.7559 153.648 98.3789C153.648 96.9727 152.623 96.0352 151.158 96.0352H133.375V82.4707H152.213C153.707 82.4707 154.732 81.5039 154.732 80.0977C154.732 78.6914 153.707 77.7246 152.213 77.7246H130.738C129.127 77.7246 128.102 78.7793 128.102 80.4492V117.275C128.102 118.945 129.127 120 130.738 120ZM167.064 120.527C168.617 120.527 169.613 119.473 169.613 117.832V93.7207H174.095C175.414 93.7207 176.263 92.959 176.263 91.6406C176.263 90.3809 175.414 89.5312 174.095 89.5312H169.584V86.3086C169.584 83.1738 170.755 81.8262 173.451 81.8262C174.095 81.8262 174.593 81.7676 175.033 81.6504C175.97 81.3867 176.41 80.8008 176.41 79.8633C176.41 78.3691 174.974 77.4902 172.279 77.4902C167.298 77.4902 164.515 80.3027 164.515 86.1328V89.5312H161.996C160.677 89.5312 159.828 90.3809 159.828 91.6406C159.828 92.959 160.677 93.7207 161.996 93.7207H164.515V117.832C164.515 119.473 165.511 120.527 167.064 120.527ZM187.687 120.527C189.239 120.527 190.236 119.473 190.236 117.832V93.7207H194.718C196.036 93.7207 196.886 92.959 196.886 91.6406C196.886 90.3809 196.036 89.5312 194.718 89.5312H190.206V86.3086C190.206 83.1738 191.378 81.8262 194.073 81.8262C194.718 81.8262 195.216 81.7676 195.655 81.6504C196.593 81.3867 197.032 80.8008 197.032 79.8633C197.032 78.3691 195.597 77.4902 192.902 77.4902C187.921 77.4902 185.138 80.3027 185.138 86.1328V89.5312H182.618C181.3 89.5312 180.45 90.3809 180.45 91.6406C180.45 92.959 181.3 93.7207 182.618 93.7207H185.138V117.832C185.138 119.473 186.134 120.527 187.687 120.527ZM215.429 120.527C220.995 120.527 225.272 118.184 227.235 114.053C227.47 113.496 227.616 112.969 227.616 112.559C227.616 111.211 226.708 110.332 225.36 110.332C224.569 110.332 223.983 110.625 223.456 111.357C221.083 114.814 218.856 116.104 215.223 116.104C209.774 116.104 206.405 112.295 206.405 106.143H225.448C227.206 106.143 228.261 105.029 228.261 103.184C228.261 94.834 222.782 89.0039 214.989 89.0039C206.581 89.0039 201.161 95.2734 201.161 104.883C201.161 114.727 206.434 120.527 215.429 120.527ZM206.434 102.158C206.757 96.9141 210.155 93.4277 214.901 93.4277C219.618 93.4277 222.87 96.8848 222.987 102.158H206.434ZM248.385 120.527C253.922 120.527 258.756 117.48 260.221 113.262C260.368 112.793 260.455 112.354 260.455 111.973C260.455 110.654 259.577 109.746 258.258 109.746C257.145 109.746 256.588 110.156 255.856 111.533C254.274 114.463 252.047 116.045 248.385 116.045C243.141 116.045 239.508 111.768 239.508 104.766C239.508 97.9395 243.082 93.4863 248.385 93.4863C251.901 93.4863 254.215 94.9805 255.827 97.998C256.53 99.3164 257.145 99.7852 258.258 99.7852C259.577 99.7852 260.426 98.9062 260.426 97.5586C260.426 97.2363 260.368 96.8555 260.25 96.4746C259.079 92.2559 254.069 89.0039 248.327 89.0039C239.889 89.0039 234.323 95.2441 234.323 104.824C234.323 114.463 239.948 120.527 248.385 120.527ZM269.916 112.969C269.916 117.832 272.377 120.234 277.299 120.234H277.621C280.463 120.234 281.342 119.414 281.342 117.861C281.342 116.66 280.58 115.986 278.91 115.869L278.471 115.84C275.922 115.664 275.014 114.434 275.014 111.855V93.7207H278.939C280.404 93.7207 281.225 92.959 281.225 91.6113C281.225 90.293 280.404 89.5312 278.939 89.5312H275.014V84.3164C275.014 82.7051 273.959 81.5918 272.465 81.5918C270.971 81.5918 269.916 82.7051 269.916 84.3164V89.5312H267.367C265.902 89.5312 265.082 90.293 265.082 91.6113C265.082 92.959 265.902 93.7207 267.367 93.7207H269.916V112.969ZM299.357 120.527C306.593 120.527 311.486 116.865 311.486 111.416C311.486 106.934 309.142 104.707 302.785 103.154L298.244 102.041C294.904 101.221 293.263 99.7559 293.263 97.6465C293.263 95.0391 295.812 93.1934 299.474 93.1934C302.58 93.1934 304.543 94.3066 305.861 96.8555C306.418 97.9102 307.121 98.2324 308.117 98.2324C309.347 98.2324 310.109 97.4414 310.109 96.2402C310.109 96.0059 310.08 95.7715 310.021 95.4785C309.23 91.8164 304.777 89.0039 299.767 89.0039C292.882 89.0039 288.224 92.6074 288.224 97.9102C288.224 102.188 291.066 104.971 296.955 106.436L301.613 107.607C305.041 108.457 306.3 109.629 306.3 111.826C306.3 114.668 303.664 116.367 299.767 116.367C295.871 116.367 294.054 115.166 292.531 112.5C291.945 111.445 291.212 110.977 290.304 110.977C288.986 110.977 287.99 111.738 287.99 113.086C287.99 113.467 288.048 113.848 288.224 114.287C289.689 118.096 293.937 120.527 299.357 120.527ZM346.462 120.527C354.87 120.527 360.554 114.463 360.554 104.766C360.554 95.0391 354.87 89.0039 346.462 89.0039C338.024 89.0039 332.341 95.0391 332.341 104.766C332.341 114.463 338.024 120.527 346.462 120.527ZM346.462 116.045C341.071 116.045 337.526 111.943 337.526 104.766C337.526 97.5879 341.071 93.4863 346.462 93.4863C351.852 93.4863 355.368 97.5879 355.368 104.766C355.368 111.943 351.852 116.045 346.462 116.045ZM372.299 120.527C373.852 120.527 374.848 119.473 374.848 117.832V93.7207H379.33C380.649 93.7207 381.498 92.959 381.498 91.6406C381.498 90.3809 380.649 89.5312 379.33 89.5312H374.819V86.3086C374.819 83.1738 375.991 81.8262 378.686 81.8262C379.33 81.8262 379.829 81.7676 380.268 81.6504C381.205 81.3867 381.645 80.8008 381.645 79.8633C381.645 78.3691 380.209 77.4902 377.514 77.4902C372.534 77.4902 369.75 80.3027 369.75 86.1328V89.5312H367.231C365.913 89.5312 365.063 90.3809 365.063 91.6406C365.063 92.959 365.913 93.7207 367.231 93.7207H369.75V117.832C369.75 119.473 370.746 120.527 372.299 120.527ZM145.504 192.703C153.238 192.703 158.746 189.539 161.529 183.943C161.998 183.006 162.232 182.215 162.232 181.307C162.232 179.93 161.236 178.934 159.83 178.934C158.658 178.934 157.926 179.49 157.369 180.779C155.377 185.525 151.041 187.84 145.533 187.84C137.184 187.84 131.881 181.219 131.881 170.848C131.881 160.564 137.242 153.885 145.504 153.885C150.719 153.885 155.26 156.58 157.252 161.561C157.838 163.055 158.746 163.758 160.035 163.758C161.471 163.758 162.408 162.82 162.408 161.355C162.408 160.74 162.262 160.008 161.969 159.275C159.479 152.977 153.209 149.021 145.504 149.021C133.932 149.021 126.461 157.576 126.461 170.848C126.461 184.236 133.844 192.703 145.504 192.703ZM179.779 192.527C183.88 192.527 187.777 190.242 189.593 186.756H189.711V189.949C189.711 191.473 190.707 192.527 192.142 192.527C193.548 192.527 194.545 191.473 194.545 189.949V170.936C194.545 164.871 190.033 161.004 182.884 161.004C177.933 161.004 173.48 163.201 171.752 166.541C171.341 167.273 171.136 168.006 171.136 168.65C171.136 170.027 172.074 170.936 173.392 170.936C174.359 170.936 175.033 170.555 175.502 169.705C177.201 166.688 179.457 165.486 182.767 165.486C186.986 165.486 189.447 167.713 189.447 171.434V173.982L180.687 174.48C173.656 174.891 169.642 178.172 169.642 183.387C169.642 188.865 173.714 192.527 179.779 192.527ZM180.921 188.191C177.259 188.191 174.828 186.287 174.828 183.387C174.828 180.516 177.171 178.699 181.273 178.436L189.447 177.938V180.428C189.447 184.822 185.726 188.191 180.921 188.191ZM205.968 202.752C207.462 202.752 208.517 201.639 208.517 200.027V187.049H208.634C210.45 190.389 213.966 192.527 218.331 192.527C226.007 192.527 231.251 186.316 231.251 176.766C231.251 167.215 225.978 161.004 218.214 161.004C213.79 161.004 210.245 163.26 208.37 166.688H208.253V163.582C208.253 162.059 207.257 161.004 205.851 161.004C204.415 161.004 203.419 162.059 203.419 163.582V200.027C203.419 201.639 204.474 202.752 205.968 202.752ZM217.218 188.045C212.003 188.045 208.488 183.562 208.488 176.766C208.488 169.998 212.003 165.486 217.218 165.486C222.638 165.486 226.036 169.881 226.036 176.766C226.036 183.68 222.638 188.045 217.218 188.045ZM249.384 192.527C256.62 192.527 261.512 188.865 261.512 183.416C261.512 178.934 259.169 176.707 252.811 175.154L248.27 174.041C244.93 173.221 243.29 171.756 243.29 169.646C243.29 167.039 245.839 165.193 249.501 165.193C252.606 165.193 254.569 166.307 255.887 168.855C256.444 169.91 257.147 170.232 258.143 170.232C259.374 170.232 260.136 169.441 260.136 168.24C260.136 168.006 260.106 167.771 260.048 167.479C259.257 163.816 254.804 161.004 249.794 161.004C242.909 161.004 238.251 164.607 238.251 169.91C238.251 174.188 241.093 176.971 246.981 178.436L251.639 179.607C255.067 180.457 256.327 181.629 256.327 183.826C256.327 186.668 253.69 188.367 249.794 188.367C245.897 188.367 244.081 187.166 242.557 184.5C241.971 183.445 241.239 182.977 240.331 182.977C239.012 182.977 238.016 183.738 238.016 185.086C238.016 185.467 238.075 185.848 238.251 186.287C239.716 190.096 243.964 192.527 249.384 192.527ZM278.034 192.527C282.135 192.527 286.032 190.242 287.848 186.756H287.965V189.949C287.965 191.473 288.961 192.527 290.397 192.527C291.803 192.527 292.799 191.473 292.799 189.949V170.936C292.799 164.871 288.288 161.004 281.139 161.004C276.188 161.004 271.735 163.201 270.006 166.541C269.596 167.273 269.391 168.006 269.391 168.65C269.391 170.027 270.329 170.936 271.647 170.936C272.614 170.936 273.288 170.555 273.756 169.705C275.455 166.688 277.711 165.486 281.022 165.486C285.241 165.486 287.702 167.713 287.702 171.434V173.982L278.942 174.48C271.911 174.891 267.897 178.172 267.897 183.387C267.897 188.865 271.969 192.527 278.034 192.527ZM279.176 188.191C275.514 188.191 273.082 186.287 273.082 183.387C273.082 180.516 275.426 178.699 279.528 178.436L287.702 177.938V180.428C287.702 184.822 283.981 188.191 279.176 188.191ZM304.486 156.404C306.244 156.404 307.68 154.969 307.68 153.24C307.68 151.482 306.244 150.076 304.486 150.076C302.758 150.076 301.322 151.482 301.322 153.24C301.322 154.969 302.758 156.404 304.486 156.404ZM304.486 192.527C305.98 192.527 307.035 191.414 307.035 189.803V163.729C307.035 162.117 305.98 161.004 304.486 161.004C302.992 161.004 301.938 162.117 301.938 163.729V189.803C301.938 191.414 302.992 192.527 304.486 192.527ZM328.888 192.527C334.425 192.527 339.259 189.48 340.724 185.262C340.871 184.793 340.959 184.354 340.959 183.973C340.959 182.654 340.08 181.746 338.761 181.746C337.648 181.746 337.091 182.156 336.359 183.533C334.777 186.463 332.55 188.045 328.888 188.045C323.644 188.045 320.011 183.768 320.011 176.766C320.011 169.939 323.586 165.486 328.888 165.486C332.404 165.486 334.718 166.98 336.33 169.998C337.033 171.316 337.648 171.785 338.761 171.785C340.08 171.785 340.929 170.906 340.929 169.559C340.929 169.236 340.871 168.855 340.754 168.475C339.582 164.256 334.572 161.004 328.83 161.004C320.392 161.004 314.826 167.244 314.826 176.824C314.826 186.463 320.451 192.527 328.888 192.527ZM351.591 156.404C353.349 156.404 354.784 154.969 354.784 153.24C354.784 151.482 353.349 150.076 351.591 150.076C349.863 150.076 348.427 151.482 348.427 153.24C348.427 154.969 349.863 156.404 351.591 156.404ZM351.591 192.527C353.085 192.527 354.14 191.414 354.14 189.803V163.729C354.14 162.117 353.085 161.004 351.591 161.004C350.097 161.004 349.042 162.117 349.042 163.729V189.803C349.042 191.414 350.097 192.527 351.591 192.527ZM365.973 192.527C367.468 192.527 368.522 191.414 368.522 189.803V174.07C368.522 168.914 371.657 165.516 376.462 165.516C381.149 165.516 383.464 168.211 383.464 173.133V189.803C383.464 191.414 384.518 192.527 386.012 192.527C387.507 192.527 388.561 191.414 388.561 189.803V172.225C388.561 165.311 384.694 161.004 378.014 161.004C373.298 161.004 370.046 163.113 368.346 166.395H368.229V163.582C368.229 162.059 367.233 161.004 365.827 161.004C364.421 161.004 363.425 162.059 363.425 163.582V189.803C363.425 191.414 364.479 192.527 365.973 192.527ZM424.797 192.527C433.205 192.527 438.889 186.463 438.889 176.766C438.889 167.039 433.205 161.004 424.797 161.004C416.359 161.004 410.676 167.039 410.676 176.766C410.676 186.463 416.359 192.527 424.797 192.527ZM424.797 188.045C419.406 188.045 415.861 183.943 415.861 176.766C415.861 169.588 419.406 165.486 424.797 165.486C430.188 165.486 433.703 169.588 433.703 176.766C433.703 183.943 430.188 188.045 424.797 188.045ZM448.994 192.527C450.488 192.527 451.543 191.414 451.543 189.803V174.07C451.543 168.914 454.677 165.516 459.482 165.516C464.17 165.516 466.484 168.211 466.484 173.133V189.803C466.484 191.414 467.539 192.527 469.033 192.527C470.527 192.527 471.582 191.414 471.582 189.803V172.225C471.582 165.311 467.714 161.004 461.035 161.004C456.318 161.004 453.066 163.113 451.367 166.395H451.25V163.582C451.25 162.059 450.254 161.004 448.847 161.004C447.441 161.004 446.445 162.059 446.445 163.582V189.803C446.445 191.414 447.5 192.527 448.994 192.527ZM141.959 264.703C151.422 264.703 157.574 259.811 157.574 251.988C157.574 246.012 154.088 242.496 145.27 240.562L140.582 239.537C134.811 238.277 132.555 235.992 132.555 232.652C132.555 228.346 136.627 225.768 141.9 225.768C146.471 225.768 149.957 227.643 151.422 231.92C151.891 233.268 152.711 233.971 154.059 233.971C155.465 233.971 156.461 233.033 156.461 231.598C156.461 231.041 156.402 230.602 156.314 230.279C154.791 224.566 149.107 221.021 142.047 221.021C133.287 221.021 127.135 225.914 127.135 232.887C127.135 238.893 130.797 242.73 139.264 244.576L143.951 245.602C149.811 246.891 152.154 249.234 152.154 252.779C152.154 256.939 147.994 259.957 142.252 259.957C136.92 259.957 132.76 257.906 131.471 253.541C131.061 252.135 130.24 251.461 128.922 251.461C127.428 251.461 126.49 252.516 126.49 254.186C126.49 254.801 126.607 255.445 126.783 256.031C128.365 261.129 134.02 264.703 141.959 264.703ZM177.963 264.527C186.371 264.527 192.054 258.463 192.054 248.766C192.054 239.039 186.371 233.004 177.963 233.004C169.525 233.004 163.841 239.039 163.841 248.766C163.841 258.463 169.525 264.527 177.963 264.527ZM177.963 260.045C172.572 260.045 169.027 255.943 169.027 248.766C169.027 241.588 172.572 237.486 177.963 237.486C183.353 237.486 186.869 241.588 186.869 248.766C186.869 255.943 183.353 260.045 177.963 260.045ZM212.179 264.527C217.716 264.527 222.55 261.48 224.015 257.262C224.161 256.793 224.249 256.354 224.249 255.973C224.249 254.654 223.37 253.746 222.052 253.746C220.939 253.746 220.382 254.156 219.65 255.533C218.068 258.463 215.841 260.045 212.179 260.045C206.935 260.045 203.302 255.768 203.302 248.766C203.302 241.939 206.876 237.486 212.179 237.486C215.695 237.486 218.009 238.98 219.62 241.998C220.323 243.316 220.939 243.785 222.052 243.785C223.37 243.785 224.22 242.906 224.22 241.559C224.22 241.236 224.161 240.855 224.044 240.475C222.872 236.256 217.863 233.004 212.12 233.004C203.683 233.004 198.116 239.244 198.116 248.824C198.116 258.463 203.741 264.527 212.179 264.527ZM234.882 228.404C236.639 228.404 238.075 226.969 238.075 225.24C238.075 223.482 236.639 222.076 234.882 222.076C233.153 222.076 231.718 223.482 231.718 225.24C231.718 226.969 233.153 228.404 234.882 228.404ZM234.882 264.527C236.376 264.527 237.43 263.414 237.43 261.803V235.729C237.43 234.117 236.376 233.004 234.882 233.004C233.387 233.004 232.333 234.117 232.333 235.729V261.803C232.333 263.414 233.387 264.527 234.882 264.527ZM255.592 264.527C259.694 264.527 263.59 262.242 265.407 258.756H265.524V261.949C265.524 263.473 266.52 264.527 267.955 264.527C269.362 264.527 270.358 263.473 270.358 261.949V242.936C270.358 236.871 265.846 233.004 258.698 233.004C253.746 233.004 249.293 235.201 247.565 238.541C247.155 239.273 246.95 240.006 246.95 240.65C246.95 242.027 247.887 242.936 249.205 242.936C250.172 242.936 250.846 242.555 251.315 241.705C253.014 238.688 255.27 237.486 258.58 237.486C262.799 237.486 265.26 239.713 265.26 243.434V245.982L256.5 246.48C249.469 246.891 245.455 250.172 245.455 255.387C245.455 260.865 249.528 264.527 255.592 264.527ZM256.735 260.191C253.073 260.191 250.641 258.287 250.641 255.387C250.641 252.516 252.985 250.699 257.086 250.436L265.26 249.938V252.428C265.26 256.822 261.539 260.191 256.735 260.191ZM281.869 264.527C283.334 264.527 284.359 263.502 284.359 262.037V258.844H284.477C286.469 262.359 289.955 264.527 294.408 264.527C302.201 264.527 307.357 258.346 307.357 248.766C307.357 239.215 302.172 233.004 294.496 233.004C290.189 233.004 286.645 235.143 284.711 238.629H284.594V223.922C284.594 222.311 283.539 221.197 282.045 221.197C280.551 221.197 279.496 222.311 279.496 223.922V262.037C279.496 263.531 280.434 264.527 281.869 264.527ZM293.412 260.045C288.256 260.045 284.564 255.562 284.564 248.766C284.564 241.998 288.256 237.486 293.412 237.486C298.803 237.486 302.143 241.852 302.143 248.766C302.143 255.738 298.803 260.045 293.412 260.045ZM317.726 228.404C319.484 228.404 320.92 226.969 320.92 225.24C320.92 223.482 319.484 222.076 317.726 222.076C315.998 222.076 314.562 223.482 314.562 225.24C314.562 226.969 315.998 228.404 317.726 228.404ZM317.726 264.527C319.22 264.527 320.275 263.414 320.275 261.803V235.729C320.275 234.117 319.22 233.004 317.726 233.004C316.232 233.004 315.177 234.117 315.177 235.729V261.803C315.177 263.414 316.232 264.527 317.726 264.527ZM332.372 264.527C333.866 264.527 334.921 263.414 334.921 261.803V223.922C334.921 222.311 333.866 221.197 332.372 221.197C330.878 221.197 329.823 222.311 329.823 223.922V261.803C329.823 263.414 330.878 264.527 332.372 264.527ZM347.018 228.404C348.776 228.404 350.212 226.969 350.212 225.24C350.212 223.482 348.776 222.076 347.018 222.076C345.29 222.076 343.854 223.482 343.854 225.24C343.854 226.969 345.29 228.404 347.018 228.404ZM347.018 264.527C348.512 264.527 349.567 263.414 349.567 261.803V235.729C349.567 234.117 348.512 233.004 347.018 233.004C345.524 233.004 344.47 234.117 344.47 235.729V261.803C344.47 263.414 345.524 264.527 347.018 264.527ZM360.493 256.969C360.493 261.832 362.954 264.234 367.875 264.234H368.198C371.039 264.234 371.918 263.414 371.918 261.861C371.918 260.66 371.157 259.986 369.487 259.869L369.047 259.84C366.498 259.664 365.59 258.434 365.59 255.855V237.721H369.516C370.981 237.721 371.801 236.959 371.801 235.611C371.801 234.293 370.981 233.531 369.516 233.531H365.59V228.316C365.59 226.705 364.536 225.592 363.041 225.592C361.547 225.592 360.493 226.705 360.493 228.316V233.531H357.944C356.479 233.531 355.659 234.293 355.659 235.611C355.659 236.959 356.479 237.721 357.944 237.721H360.493V256.969ZM382.346 275.396C387.385 275.396 389.875 273.141 392.512 266.139L403.762 236.695C403.938 236.197 404.025 235.729 404.025 235.348C404.025 233.971 403 233.004 401.535 233.004C400.275 233.004 399.602 233.531 399.133 234.879L390.695 258.902H390.607L382.199 234.879C381.73 233.531 380.969 233.004 379.768 233.004C378.303 233.004 377.219 233.941 377.219 235.348C377.219 235.729 377.307 236.197 377.482 236.695L387.971 264.029L387.268 266.168C386.066 269.859 384.221 271.031 382.287 271.031C381.496 271.031 381.291 271.002 380.559 271.002C379.27 271.002 378.508 271.764 378.508 272.877C378.508 274.488 379.885 275.396 382.346 275.396Z" fill="white"/>
<ellipse rx="4.2403" ry="2.22227" transform="matrix(-0.997197 0.0748149 0.0748149 0.997197 262.174 418.886)" fill="#E3BC99"/>
<ellipse rx="6.82585" ry="2.22227" transform="matrix(-0.997197 0.0748149 0.0748149 0.997197 280.036 395.706)" fill="#E3BC99"/>
<rect width="36.1977" height="39.5565" rx="18.0988" transform="matrix(-0.997197 0.0748149 0.0748149 0.997197 231.817 305.949)" fill="#E3BC99"/>
<rect width="12.6175" height="25.7784" rx="6.30874" transform="matrix(-0.997197 0.0748149 0.0748149 0.997197 218.362 339.495)" fill="#E3BC99"/>
<ellipse rx="26.3726" ry="17.1115" transform="matrix(-0.997197 0.0748149 0.0748149 0.997197 219.686 441.461)" fill="#363636"/>
<path d="M244.995 491.599L245.961 441.942L223.93 453.4L226.898 492.956L223.511 546.361L234.256 545.554L244.995 491.599Z" fill="#363636"/>
<path d="M239.65 355.057C239.567 353.956 238.608 353.13 237.506 353.212L188.898 356.859C187.796 356.942 186.97 357.902 187.053 359.003L193.312 442.437C193.354 442.988 193.834 443.401 194.384 443.36L244.987 439.563C245.538 439.522 245.951 439.042 245.91 438.491L239.65 355.057Z" fill="#3485A8"/>
<path d="M202.517 497.181L193.916 444.955L218.914 457.438L218.166 496.006L212.578 548.072L201.714 548.887L202.517 497.181Z" fill="#363636"/>
<path d="M178.86 367.306C176.658 357.624 187.52 356.473 194.961 356.583L214.899 394.242L261.78 415.015L261.177 422.192C242.384 419.145 195.664 410.193 192.304 409.642C188.104 408.955 181.801 380.234 178.86 367.306Z" fill="#3485A8"/>
<path d="M247.804 360.242C246.212 349.707 234.586 352.821 228.591 353.979C228.591 353.979 243.714 399.545 244.861 401.019C246.009 402.493 280.319 399.473 280.319 399.473L281.301 391.823L253.14 391.022C251.838 386.543 249.396 370.777 247.804 360.242Z" fill="#3485A8"/>
<path d="M196.084 309.625C199.051 299.204 215.814 302.317 226.892 301.292C237.985 300.46 233.907 312.549 232.602 315.027C231.298 317.504 212.565 316.142 209.81 316.737C207.054 317.332 206.342 321.869 204.711 324.808C203.08 327.747 199.214 336.06 197.162 333.397C195.111 330.734 193.117 320.047 196.084 309.625Z" fill="#4D4A4A"/>
<path d="M201.124 557.995L233.498 558.124L233.473 554.381C233.465 553.059 229.771 552.788 227.925 552.819C222.992 550.783 213.567 546.489 213.057 545.786C212.548 545.082 209.476 546.556 207.845 547.355C206.681 547.313 202.934 547.245 201.859 547.331C200.785 547.417 200.987 550.954 201.09 552.711L201.124 557.995Z" fill="#FFF7ED"/>
<path d="M222.769 556.194L255.142 556.323L255.118 552.58C255.109 551.257 251.416 550.987 249.57 551.017C244.636 548.982 235.211 544.688 234.702 543.985C234.192 543.281 231.12 544.755 229.49 545.554C228.326 545.511 224.578 545.444 223.504 545.53C222.429 545.616 222.631 549.153 222.735 550.91L222.769 556.194Z" fill="#FFF7ED"/>
<ellipse rx="5.1711" ry="4.44455" transform="matrix(-0.997197 0.0748149 0.0748149 0.997197 267.194 418.063)" fill="#E3BC99"/>
<ellipse rx="5.1711" ry="4.44455" transform="matrix(-0.997197 0.0748149 0.0748149 0.997197 287.651 394.912)" fill="#E3BC99"/>
<path d="M288.081 388.649C286.523 387.969 282.357 383.752 282.572 385.437C282.868 387.762 285.147 389.566 286.996 391.071C288.962 392.671 288.518 392.508 291.261 392.16C293.032 391.936 293.636 390.875 292.421 389.567C290.989 388.025 290.009 389.491 288.081 388.649Z" fill="#FF6565"/>
<path d="M292.637 391.662L291.203 388.855C291.203 388.855 291.511 388.724 291.845 388.823C292.26 388.945 292.992 389.443 293.22 389.758C293.441 390.064 293.414 390.627 293.259 391.044C293.126 391.401 292.637 391.662 292.637 391.662Z" fill="#228911"/>
<path d="M293.468 389.576C293.314 389.756 292.762 389.606 292.762 389.606L293.073 390.143C293.073 390.143 294.057 390.02 293.952 389.639C293.887 389.408 293.741 389.217 293.558 389.373C293.479 389.442 293.536 389.496 293.468 389.576Z" fill="#228911"/>
<path d="M381.172 487.155L364.798 488.606L375.343 553.68L383.745 552.935L381.172 487.155Z" fill="#EEC0B2"/>
<path d="M404.53 488.669L388.157 490.12L398.702 555.194L407.104 554.449L404.53 488.669Z" fill="#EEC0B2"/>
<path d="M385.192 559.942C385.192 559.942 357.876 562.536 357.499 562.576C357.438 562.049 357.249 560.942 357.134 559.942C357.019 558.942 359.199 558.587 360.846 558.443C365.05 556.461 373.043 552.367 373.432 551.789C373.82 551.212 376.693 552.049 378.219 552.506C379.251 552.369 382.582 551.981 383.547 551.949C384.511 551.917 384.66 554.608 384.732 555.946L385.192 559.942Z" fill="#FFF7ED"/>
<path d="M408.746 560.807C408.746 560.807 381.43 563.401 381.053 563.441C380.992 562.914 380.803 561.807 380.688 560.807C380.573 559.807 382.754 559.452 384.4 559.309C388.604 557.326 396.597 553.232 396.986 552.654C397.374 552.077 400.247 552.914 401.773 553.371C402.806 553.234 406.136 552.846 407.101 552.814C408.066 552.782 408.214 555.474 408.286 556.811L408.746 560.807Z" fill="#FFF7ED"/>
<ellipse cx="375.504" cy="336.945" rx="16.7621" ry="20.4389" fill="#EEC0B2"/>
<rect x="373.882" y="346.57" width="11.4631" height="18.1679" rx="5.73155" fill="#EEC0B2"/>
<path d="M353.984 494.509C353.202 492.995 370.884 423.351 370.884 423.351L396.56 423.608C396.56 423.608 415.839 492.995 414.327 494.509C412.816 496.023 354.598 495.698 353.984 494.509Z" fill="#363636"/>
<path d="M400.161 363.226C396.916 358.684 363.825 359.116 359.715 363.226C355.606 367.335 370.817 424.867 370.817 424.867H396.987C396.987 424.867 403.405 367.768 400.161 363.226Z" fill="#9B7DDB"/>
<ellipse cx="334.303" cy="398.864" rx="6.70483" ry="1.82719" transform="rotate(10.1576 334.303 398.864)" fill="#EEC0B2"/>
<path d="M362.96 381.5L361.986 362.034C361.986 362.034 352.115 364.077 351.355 366.528C350.596 368.979 353.987 395.674 352.902 396.964C351.818 398.254 334.194 394.53 334.194 396.207C334.194 397.884 333.761 400.133 333.761 401.939C333.761 403.745 359.495 408.399 360.905 407.238C362.315 406.077 362.96 381.5 362.96 381.5Z" fill="#9B7DDB"/>
<ellipse cx="328.049" cy="397.859" rx="4.3257" ry="3.78499" transform="rotate(11.5086 328.049 397.859)" fill="#EEC0B2"/>
<ellipse cx="383.654" cy="411.643" rx="6.70483" ry="1.82719" transform="rotate(-23.5206 383.654 411.643)" fill="#EEC0B2"/>
<ellipse cx="377.112" cy="414.274" rx="4.3257" ry="3.78499" transform="rotate(-22.1696 377.112 414.274)" fill="#EEC0B2"/>
<path d="M416.754 388.615C414.855 379.59 400.376 362.802 400.376 362.802L390.489 366.118L406.757 390.704C406.757 390.704 381.452 407.778 382.533 409.725C383.615 411.671 384.45 413.519 385.237 413.51C386.024 413.501 418.653 397.641 416.754 388.615Z" fill="#9B7DDB"/>
<path d="M354.734 321.922C356.103 319.568 365.143 315.556 375.11 316.396C387.569 317.447 394.815 322.288 396.138 329.504C397.462 336.721 403.39 365.026 405.627 366.917C408.568 369.403 413.141 374.488 411.28 378.486C409.467 382.38 406.525 380.759 399.963 376.545C393.4 372.33 393.25 369.639 391.964 365.876C390.678 362.112 388.109 334.937 383.659 332.525C381.469 331.337 366.209 334.187 359.579 330.709C353.802 327.68 353.966 323.99 354.734 321.922Z" fill="#816B5F"/>
<path d="M326.986 392.307C328.606 392.666 334.315 391.731 333.178 392.938C331.609 394.602 328.775 394.716 326.451 394.841C323.981 394.974 324.425 395.101 322.461 393.251C321.192 392.057 321.324 390.873 323.034 390.539C325.05 390.145 324.981 391.864 326.986 392.307Z" fill="#FF6565"/>
<path d="M321.661 392.068L324.404 390.677C324.404 390.677 324.236 390.396 323.916 390.282C323.519 390.141 322.655 390.113 322.295 390.231C321.944 390.345 321.642 390.805 321.525 391.223C321.425 391.581 321.661 392.068 321.661 392.068Z" fill="#228911"/>
<path d="M322.203 389.945C322.221 390.175 322.742 390.374 322.742 390.374L322.189 390.618C322.189 390.618 321.483 389.956 321.785 389.717C321.969 389.571 322.194 389.505 322.248 389.733C322.272 389.833 322.195 389.843 322.203 389.945Z" fill="#228911"/>
<defs>
<linearGradient id="paint0_linear" x1="300" y1="0" x2="300" y2="600" gradientUnits="userSpaceOnUse">
<stop stop-color="#FF9554"/>
<stop offset="1" stop-color="#FF5847" stop-opacity="0.5"/>
</linearGradient>
</defs>
</svg>
