<svg xmlns="http://www.w3.org/2000/svg" viewBox="0 0 1307.25 193.67"><defs><style>.cls-1{fill:#56bce9;}.cls-2,.cls-6{fill:#fff;}.cls-3{fill:#56a8e9;}.cls-4{fill:#5694e9;}.cls-5{fill:#5680e9;}.cls-6{font-size:22px;font-family:Helvetica-Bold, Helvetica;font-weight:700;}.cls-10,.cls-7{font-size:20px;font-family:Helvetica;}.cls-10,.cls-8{letter-spacing:0.01em;}.cls-9{font-family:Helvetica-Light, Helvetica;font-weight:300;}</style></defs><title>Asset 1</title><g id="Layer_2" data-name="Layer 2"><g id="Layer_1-2" data-name="Layer 1"><polygon class="cls-1" points="1254.62 74 953.88 74 953.88 0.18 1254.62 0.18 1307.25 37.09 1254.62 74"/><polygon class="cls-2" points="1007.5 36.99 952.8 0 952.8 73.97 1007.5 36.99"/><polygon class="cls-3" points="936.62 74 635.88 74 635.88 0.18 936.62 0.18 989.25 37.09 936.62 74"/><polygon class="cls-2" points="689.5 36.99 634.8 0 634.8 73.97 689.5 36.99"/><polygon class="cls-4" points="617.9 74 317.16 74 317.16 0.18 617.9 0.18 670.53 37.09 617.9 74"/><polygon class="cls-2" points="370.78 36.99 316.08 0 316.08 73.97 370.78 36.99"/><polygon class="cls-5" points="300.75 74 0 74 0 0.18 300.75 0.18 353.38 37.09 300.75 74"/><text class="cls-6" transform="translate(102.36 44.88)">Empathize</text><text class="cls-6" transform="translate(466.76 44.88)">Define</text><text class="cls-6" transform="translate(787.58 44.88)">Ideate</text><text class="cls-6" transform="translate(1085.04 44.88)">Prototype</text><text class="cls-7" transform="translate(66.78 107.68)"><tspan class="cls-8">●<tspan class="cls-9" x="12.18" y="0" xml:space="preserve"> Interviews</tspan><tspan x="0" y="24">●</tspan><tspan class="cls-9" x="12.18" y="24" xml:space="preserve"> Online Research</tspan></tspan><tspan class="cls-9"><tspan x="90.11" y="48"> </tspan></tspan></text><text class="cls-7" transform="translate(402.78 107.68)"><tspan class="cls-8">●<tspan class="cls-9" x="12.18" y="0" xml:space="preserve"> Persona</tspan><tspan x="0" y="24">●</tspan><tspan class="cls-9" x="12.18" y="24" xml:space="preserve"> Problem Statement</tspan></tspan><tspan class="cls-9"><tspan x="97.61" y="48"> </tspan></tspan></text><text/><text class="cls-10" transform="translate(724.15 106.92)">●<tspan class="cls-9" x="12.18" y="0" xml:space="preserve"> Brainstorm</tspan><tspan x="-0.18" y="24">●</tspan><tspan class="cls-9" x="12" y="24" xml:space="preserve"> Prioritizaion Matrix</tspan><tspan x="-0.36" y="48">●</tspan><tspan class="cls-9" x="11.82" y="48" xml:space="preserve"> Product Sitemap</tspan></text><text class="cls-10" transform="translate(1066.15 106.92)">●<tspan class="cls-9" x="12.18" y="0" xml:space="preserve"> Wireframing</tspan><tspan x="-0.18" y="24">●</tspan><tspan class="cls-9" x="12" y="24" xml:space="preserve"> AdobeXD</tspan></text></g></g></svg>