<?xml version="1.0" encoding="utf-8"?>
<!-- Generator: Adobe Illustrator 24.0.3, SVG Export Plug-In . SVG Version: 6.00 Build 0)  -->
<svg version="1.1" id="Layer_1" xmlns="http://www.w3.org/2000/svg" xmlns:xlink="http://www.w3.org/1999/xlink" x="0px" y="0px"
	 viewBox="0 0 252 254.9" style="enable-background:new 0 0 252 254.9;" xml:space="preserve">
<style type="text/css">
	.st0{enable-background:new    ;}
	.st1{fill:#071A24;}
	.st2{fill:#193142;}
	.st3{fill:#F4C650;}
	.st4{fill:#FFFFFF;}
</style>
<title>histo-box [Recovered]</title>
<g class="st0">
	<path class="st1" d="M112.9,170V155h-11.8V170h-7.6v-37.3h7.6v15.1h11.8v-15.1h7.6V170H112.9z"/>
	<path class="st1" d="M128.6,170v-37.3h7.6V170H128.6z"/>
	<path class="st1" d="M170.3,164.7c-0.6,0.9-3.3,3.7-4.2,4.3c-1.3,0.9-3,1.4-4.7,1.4h-9c-3.7,0-6.6-3.1-8.1-5.2
		c-0.5-0.6-1.1-2-1.6-2.9l7.4-2c0.6,1.5,1.7,2.4,2.3,2.8c0.7,0,3,0,9.2,0c0.9-0.5,2-2.1,2-2.1v-3.7c0-0.2-0.2-0.4-0.2-0.4
		c-4.9-1.4-9.9-2.9-14.9-4.2c-3.4-0.9-5.2-4.2-5.2-7.2V142c0-1.1,0.2-2.7,1-3.9c0.6-0.7,3.1-3.5,4.1-4.2c1.2-0.9,3-1.5,4.7-1.5h8
		c3.7,0,6.8,3,8.1,5.2c0.6,0.9,0.9,1.6,1.5,2.8l-7.3,2c-0.7-1.5-1.9-2.2-2.6-2.7h-7.3c-1.2,0.6-2.5,2.2-2.5,2.2v3.3
		c0,0.2,0.2,0.4,0.2,0.4c4.9,1.4,10,2.9,15,4.3c3.4,1,5.1,4.2,5.1,7.2v3.7C171.3,161.8,171.1,163.4,170.3,164.7z"/>
	<path class="st1" d="M193.3,139.9v30h-7.6v-30h-9.8v-7.3H203v7.3H193.3z"/>
	<path class="st1" d="M235.5,164.6c-0.8,1.1-3.2,3.7-4.5,4.5c-1.1,0.6-2.6,1.2-4.1,1.2h-8.5c-1.6,0-3-0.6-4.1-1.2
		c-1.4-0.8-3.8-3.5-4.5-4.5c-0.8-1.2-1.1-2.5-1.1-3.9V142c0-1.4,0.2-2.7,1.1-3.9c0.7-1,3.2-3.7,4.5-4.5c1.1-0.6,2.5-1.2,4.1-1.2h8.5
		c1.4,0,3,0.6,4.1,1.2c1.3,0.8,3.6,3.4,4.5,4.5c0.8,1.2,1.1,2.6,1.1,3.9v18.7C236.7,161.9,236.3,163.4,235.5,164.6z M229,142
		c-0.4-0.8-1.6-1.9-2.2-2.3h-8.1c-0.5,0.4-1.6,1.3-2.3,2.4v18.6c0.7,0.9,1.7,2,2.2,2.3h8.1c0.5-0.3,1.6-1.3,2.2-2.3V142z"/>
</g>
<g class="st0">
	<path class="st1" d="M119,210.7c-0.6,0.8-2.4,2.7-3.3,3.4c-1.2,0.9-3.2,1.4-4.7,1.4H93.5v-37.3H111c1.7,0,3.5,0.6,4.7,1.5
		c0.9,0.7,2.7,2.6,3.3,3.4c0.9,1.3,1.1,2.9,1.1,4.2v4.5c0,2.4-0.9,4-2.1,5.2c1.2,1.3,2.1,2.7,2.1,5.2v4.5
		C120.2,208.1,119.9,209.5,119,210.7z M112.6,187.3c-0.6-0.9-1.5-1.7-1.7-1.7h-9.8v7.8h9.9c0.2,0,1.2-0.8,1.6-1.6V187.3z
		 M112.6,202.1c-0.6-0.9-1.5-1.7-1.7-1.7h-9.8v7.9h9.9c0.2,0,1.1-0.7,1.6-1.6V202.1z"/>
	<path class="st1" d="M153.9,210.1c-0.8,1.1-3.2,3.7-4.5,4.5c-1.1,0.6-2.6,1.2-4.1,1.2h-8.5c-1.6,0-3-0.6-4.1-1.2
		c-1.4-0.8-3.8-3.5-4.5-4.5c-0.8-1.2-1.1-2.5-1.1-3.9v-18.7c0-1.4,0.2-2.7,1.1-3.9c0.7-1,3.2-3.7,4.5-4.5c1.1-0.6,2.5-1.2,4.1-1.2
		h8.5c1.4,0,3,0.6,4.1,1.2c1.3,0.8,3.6,3.4,4.5,4.5c0.8,1.2,1.1,2.6,1.1,3.9v18.7C155,207.5,154.7,209,153.9,210.1z M147.4,187.6
		c-0.4-0.8-1.6-1.9-2.2-2.3h-8.1c-0.5,0.4-1.6,1.3-2.3,2.4v18.6c0.7,0.9,1.7,2,2.2,2.3h8.1c0.5-0.3,1.6-1.3,2.2-2.3V187.6z"/>
	<path class="st1" d="M179.4,196.6l11.3,19h-8.5l-7-12.1l-7,12.1h-8.5l11.3-19l-10.8-18.3h8.5l6.6,11.5l6.7-11.5h8.4L179.4,196.6z"
		/>
</g>
<polygon class="st2" points="87.4,133.5 87.4,217.9 21.3,187.6 21.3,103.2 "/>
<polygon class="st3" points="88.5,126.5 154.7,96.2 88.5,66.8 22.3,96.2 "/>
<path class="st2" d="M136.3,46.4c0,3.7-1.7,7.4-5.1,10.7c-3.8,3.7-11.2,6.6-16.6,9.9C99.8,76,92,86.9,88.5,98.2
	c-2.6-8.5-7.3-16.3-13.7-22.5c-3.6-3.6-7.8-6.7-12.4-9c-11.6-6-21.8-11.4-21.8-20.2c0-12.9,21.4-23.3,47.8-23.3
	S136.3,33.5,136.3,46.4z"/>
<path class="st2" d="M57.5,30.2l62.1,0.3c3.7,0,6.7,3.1,6.7,6.8l-0.1,16c0,3.7-3.1,6.7-6.8,6.7l-62.1-0.3c-3.7,0-6.7-3.1-6.7-6.8
	l0.1-16C50.7,33.2,53.8,30.2,57.5,30.2z"/>
<path class="st4" d="M80.6,43.2v3.7c0,0.4-0.3,0.8-0.8,0.8c0,0,0,0,0,0h-4.5c-0.4,0-0.8,0.4-0.8,0.8l0,0V53c0,0.4-0.4,0.8-0.8,0.8
	H70c-0.4,0-0.8-0.3-0.8-0.8c0,0,0,0,0,0v-4.5c0-0.4-0.4-0.8-0.8-0.8l0,0L64,47.6c-0.4,0-0.8-0.4-0.8-0.8l0,0v-3.7
	c0-0.4,0.4-0.8,0.8-0.8l0,0h4.5c0.4,0,0.8-0.4,0.8-0.8l0,0v-4.5c0-0.4,0.4-0.8,0.8-0.8h3.7c0.4,0,0.8,0.4,0.8,0.8l0,0v4.5
	c0,0.4,0.4,0.8,0.8,0.8l0,0h4.5C80.2,42.4,80.6,42.8,80.6,43.2C80.6,43.2,80.6,43.2,80.6,43.2z"/>
<circle class="st4" cx="105.5" cy="38.6" r="3.3"/>
<circle class="st4" cx="105.5" cy="51.8" r="3.3"/>
<circle class="st4" cx="112.1" cy="45.2" r="3.3"/>
<circle class="st4" cx="98.9" cy="45.2" r="3.3"/>
</svg>
