<svg width="275" height="275" viewBox="0 0 275 275" fill="none" xmlns="http://www.w3.org/2000/svg">
<rect width="275" height="275" rx="2" fill="#FAFAFA"/>
<path d="M123.9 181V166H112.1V181H104.5V143.7H112.1V158.8H123.9V143.7H131.5V181H123.9Z" fill="#071A24"/>
<path d="M139.6 181V143.7H147.2V181H139.6Z" fill="#071A24"/>
<path d="M181.3 175.7C180.7 176.6 178 179.4 177.1 180C175.8 180.9 174.1 181.4 172.4 181.4H163.4C159.7 181.4 156.8 178.3 155.3 176.2C154.8 175.6 154.2 174.2 153.7 173.3L161.1 171.3C161.7 172.8 162.8 173.7 163.4 174.1C164.1 174.1 166.4 174.1 172.6 174.1C173.5 173.6 174.6 172 174.6 172V168.3C174.6 168.1 174.4 167.9 174.4 167.9C169.5 166.5 164.5 165 159.5 163.7C156.1 162.8 154.3 159.5 154.3 156.5V153C154.3 151.9 154.5 150.3 155.3 149.1C155.9 148.4 158.4 145.6 159.4 144.9C160.6 144 162.4 143.4 164.1 143.4H172.1C175.8 143.4 178.9 146.4 180.2 148.6C180.8 149.5 181.1 150.2 181.7 151.4L174.4 153.4C173.7 151.9 172.5 151.2 171.8 150.7H164.5C163.3 151.3 162 152.9 162 152.9V156.2C162 156.4 162.2 156.6 162.2 156.6C167.1 158 172.2 159.5 177.2 160.9C180.6 161.9 182.3 165.1 182.3 168.1V171.8C182.3 172.8 182.1 174.4 181.3 175.7Z" fill="#071A24"/>
<path d="M204.3 150.9V180.9H196.7V150.9H186.9V143.6H214V150.9H204.3Z" fill="#071A24"/>
<path d="M246.5 175.6C245.7 176.7 243.3 179.3 242 180.1C240.9 180.7 239.4 181.3 237.9 181.3H229.4C227.8 181.3 226.4 180.7 225.3 180.1C223.9 179.3 221.5 176.6 220.8 175.6C220 174.4 219.7 173.1 219.7 171.7V153C219.7 151.6 219.9 150.3 220.8 149.1C221.5 148.1 224 145.4 225.3 144.6C226.4 144 227.8 143.4 229.4 143.4H237.9C239.3 143.4 240.9 144 242 144.6C243.3 145.4 245.6 148 246.5 149.1C247.3 150.3 247.6 151.7 247.6 153V171.7C247.7 172.9 247.3 174.4 246.5 175.6ZM240 153C239.6 152.2 238.4 151.1 237.8 150.7H229.7C229.2 151.1 228.1 152 227.4 153.1V171.7C228.1 172.6 229.1 173.7 229.6 174H237.7C238.2 173.7 239.3 172.7 239.9 171.7V153H240Z" fill="#071A24"/>
<path d="M130 221.7C129.4 222.5 127.6 224.4 126.7 225.1C125.5 226 123.5 226.5 122 226.5H104.5V189.2H122C123.7 189.2 125.5 189.8 126.7 190.7C127.6 191.4 129.4 193.3 130 194.1C130.9 195.4 131.1 197 131.1 198.3V202.8C131.1 205.2 130.2 206.8 129 208C130.2 209.3 131.1 210.7 131.1 213.2V217.7C131.2 219.1 130.9 220.5 130 221.7ZM123.6 198.3C123 197.4 122.1 196.6 121.9 196.6H112.1V204.4H122C122.2 204.4 123.2 203.6 123.6 202.8V198.3ZM123.6 213.1C123 212.2 122.1 211.4 121.9 211.4H112.1V219.3H122C122.2 219.3 123.1 218.6 123.6 217.7V213.1Z" fill="#071A24"/>
<path d="M164.9 221.1C164.1 222.2 161.7 224.8 160.4 225.6C159.3 226.2 157.8 226.8 156.3 226.8H147.8C146.2 226.8 144.8 226.2 143.7 225.6C142.3 224.8 139.9 222.1 139.2 221.1C138.4 219.9 138.1 218.6 138.1 217.2V198.5C138.1 197.1 138.3 195.8 139.2 194.6C139.9 193.6 142.4 190.9 143.7 190.1C144.8 189.5 146.2 188.9 147.8 188.9H156.3C157.7 188.9 159.3 189.5 160.4 190.1C161.7 190.9 164 193.5 164.9 194.6C165.7 195.8 166 197.2 166 198.5V217.2C166 218.5 165.7 220 164.9 221.1ZM158.4 198.6C158 197.8 156.8 196.7 156.2 196.3H148.1C147.6 196.7 146.5 197.6 145.8 198.7V217.3C146.5 218.2 147.5 219.3 148 219.6H156.1C156.6 219.3 157.7 218.3 158.3 217.3V198.6H158.4Z" fill="#071A24"/>
<path d="M190.4 207.6L201.7 226.6H193.2L186.2 214.5L179.2 226.6H170.7L182 207.6L171.2 189.3H179.7L186.3 200.8L193 189.3H201.4L190.4 207.6Z" fill="#071A24"/>
<path d="M98.4001 144.5V228.9L32.3 198.6V114.2L98.4001 144.5Z" fill="#193142"/>
<path d="M99.5 137.5L165.7 107.2L99.5 77.8L33.3 107.2L99.5 137.5Z" fill="#F4C650"/>
<path d="M147.3 57.4C147.3 61.1 145.6 64.8 142.2 68.1C138.4 71.8 131 74.7 125.6 78C110.8 87 103 97.9 99.5001 109.2C96.9001 100.7 92.2001 92.9 85.8001 86.7C82.2001 83.1 78.0001 80 73.4001 77.7C61.8001 71.7 51.6001 66.3 51.6001 57.5C51.6001 44.6 73.0001 34.2 99.4001 34.2C125.8 34.2 147.3 44.5 147.3 57.4Z" fill="#193142"/>
<path d="M68.5001 41.2L130.6 41.5C134.3 41.5 137.3 44.6 137.3 48.3L137.2 64.3C137.2 68 134.1 71 130.4 71L68.3001 70.7C64.6001 70.7 61.6001 67.6 61.6001 63.9L61.7001 47.9C61.7001 44.2 64.8001 41.2 68.5001 41.2Z" fill="#193142"/>
<path d="M91.5999 54.2V57.9C91.5999 58.3 91.3 58.7 90.8 58.7H86.3C85.9 58.7 85.5 59.1 85.5 59.5V64C85.5 64.4 85.0999 64.8 84.6999 64.8H81C80.6 64.8 80.1999 64.5 80.1999 64V59.5C80.1999 59.1 79.8 58.7 79.4 58.7L75 58.6C74.6 58.6 74.2 58.2 74.2 57.8V54.1C74.2 53.7 74.6 53.3 75 53.3H79.5C79.9 53.3 80.3 52.9 80.3 52.5V48C80.3 47.6 80.6999 47.2 81.0999 47.2H84.8C85.2 47.2 85.5999 47.6 85.5999 48V52.5C85.5999 52.9 86 53.3 86.4 53.3H90.9C91.2 53.4 91.5999 53.8 91.5999 54.2Z" fill="white"/>
<path d="M116.5 52.9C118.322 52.9 119.8 51.4225 119.8 49.6C119.8 47.7774 118.322 46.3 116.5 46.3C114.677 46.3 113.2 47.7774 113.2 49.6C113.2 51.4225 114.677 52.9 116.5 52.9Z" fill="white"/>
<path d="M116.5 66.1C118.322 66.1 119.8 64.6225 119.8 62.8C119.8 60.9775 118.322 59.5 116.5 59.5C114.677 59.5 113.2 60.9775 113.2 62.8C113.2 64.6225 114.677 66.1 116.5 66.1Z" fill="white"/>
<path d="M123.1 59.5C124.923 59.5 126.4 58.0225 126.4 56.2C126.4 54.3775 124.923 52.9 123.1 52.9C121.278 52.9 119.8 54.3775 119.8 56.2C119.8 58.0225 121.278 59.5 123.1 59.5Z" fill="white"/>
<path d="M109.9 59.5C111.723 59.5 113.2 58.0225 113.2 56.2C113.2 54.3775 111.723 52.9 109.9 52.9C108.078 52.9 106.6 54.3775 106.6 56.2C106.6 58.0225 108.078 59.5 109.9 59.5Z" fill="white"/>
</svg>
