<svg width="900" height="220" viewBox="0 0 900 220" fill="none" xmlns="http://www.w3.org/2000/svg">
<rect width="900" height="220" fill="#FAFAFA"/>
<path d="M70 40H238.896L290 78L238.896 116H70V40Z" fill="#3A86FF"/>
<path d="M250 40H418.896L470 78L418.896 116H250L302 78L250 40Z" fill="#5396FF"/>
<path d="M430 40H598.896L650 78L598.896 116H430L482 78L430 40Z" fill="#6CA5FF"/>
<path d="M610 40H778.896L830 78L778.896 116H610L662 78L610 40Z" fill="#9DC3FF"/>
<path d="M114.617 71.048H124.613V73.19H117.263V77.327H124.172V79.469H117.263V83.858H124.613V86H114.617V71.048ZM139.433 75.122C140.637 75.122 141.533 75.486 142.121 76.214C142.709 76.928 143.003 78.02 143.003 79.49V86H140.378V79.574C140.378 78.734 140.238 78.132 139.958 77.768C139.692 77.39 139.244 77.201 138.614 77.201C137.886 77.201 137.312 77.46 136.892 77.978C136.486 78.482 136.283 79.182 136.283 80.078V86H133.658V79.574C133.658 78.748 133.511 78.146 133.217 77.768C132.937 77.39 132.489 77.201 131.873 77.201C131.145 77.201 130.571 77.46 130.151 77.978C129.731 78.482 129.521 79.182 129.521 80.078V86H126.917V78.398C126.917 77.278 126.861 76.277 126.749 75.395H129.206L129.395 77.075C129.703 76.445 130.144 75.962 130.718 75.626C131.306 75.29 131.978 75.122 132.734 75.122C134.358 75.122 135.415 75.794 135.905 77.138C136.241 76.508 136.717 76.018 137.333 75.668C137.963 75.304 138.663 75.122 139.433 75.122ZM151.853 75.122C152.763 75.122 153.568 75.36 154.268 75.836C154.982 76.298 155.535 76.956 155.927 77.81C156.333 78.65 156.536 79.616 156.536 80.708C156.536 81.8 156.34 82.759 155.948 83.585C155.556 84.411 155.003 85.048 154.289 85.496C153.589 85.944 152.777 86.168 151.853 86.168C151.083 86.168 150.397 86.007 149.795 85.685C149.193 85.349 148.731 84.887 148.409 84.299V90.536H145.805V78.398C145.805 77.278 145.749 76.277 145.637 75.395H148.094L148.304 77.222C148.584 76.564 149.039 76.053 149.669 75.689C150.299 75.311 151.027 75.122 151.853 75.122ZM151.139 84.11C152.021 84.11 152.7 83.816 153.176 83.228C153.652 82.64 153.89 81.8 153.89 80.708C153.89 79.602 153.652 78.741 153.176 78.125C152.7 77.495 152.028 77.18 151.16 77.18C150.264 77.18 149.578 77.481 149.102 78.083C148.626 78.685 148.388 79.546 148.388 80.666C148.388 81.772 148.626 82.626 149.102 83.228C149.578 83.816 150.257 84.11 151.139 84.11ZM168.97 75.395V86H166.387V84.299C166.065 84.887 165.603 85.349 165.001 85.685C164.399 86.007 163.713 86.168 162.943 86.168C162.019 86.168 161.2 85.944 160.486 85.496C159.772 85.048 159.219 84.411 158.827 83.585C158.435 82.759 158.239 81.8 158.239 80.708C158.239 79.616 158.435 78.65 158.827 77.81C159.233 76.956 159.793 76.298 160.507 75.836C161.221 75.36 162.033 75.122 162.943 75.122C163.713 75.122 164.399 75.29 165.001 75.626C165.603 75.948 166.065 76.403 166.387 76.991V75.395H168.97ZM163.657 84.11C164.525 84.11 165.197 83.809 165.673 83.207C166.149 82.605 166.387 81.758 166.387 80.666C166.387 79.546 166.149 78.685 165.673 78.083C165.197 77.481 164.518 77.18 163.636 77.18C162.768 77.18 162.089 77.495 161.599 78.125C161.123 78.741 160.885 79.602 160.885 80.708C160.885 81.8 161.123 82.64 161.599 83.228C162.089 83.816 162.775 84.11 163.657 84.11ZM175.168 77.369V82.115C175.168 83.361 175.749 83.984 176.911 83.984C177.233 83.984 177.583 83.928 177.961 83.816V85.895C177.499 86.063 176.939 86.147 176.281 86.147C175.077 86.147 174.153 85.811 173.509 85.139C172.865 84.467 172.543 83.501 172.543 82.241V77.369H170.506V75.395H172.543V72.812L175.168 71.93V75.395H177.982V77.369H175.168ZM185.855 75.122C188.389 75.122 189.656 76.578 189.656 79.49V86H187.031V79.616C187.031 78.776 186.87 78.167 186.548 77.789C186.226 77.397 185.729 77.201 185.057 77.201C184.259 77.201 183.615 77.46 183.125 77.978C182.635 78.482 182.39 79.154 182.39 79.994V86H179.786V70.544H182.39V76.928C182.754 76.354 183.237 75.913 183.839 75.605C184.441 75.283 185.113 75.122 185.855 75.122ZM192.44 75.395H195.044V86H192.44V75.395ZM195.191 70.586V73.169H192.272V70.586H195.191ZM206.735 84.005V86H197.516V84.173L203.375 77.369H197.642V75.395H206.504V77.18L200.624 84.005H206.735ZM217.964 80.834H210.656C210.712 81.968 210.992 82.808 211.496 83.354C212.014 83.886 212.777 84.152 213.785 84.152C214.947 84.152 216.025 83.774 217.019 83.018L217.775 84.824C217.271 85.23 216.648 85.559 215.906 85.811C215.178 86.049 214.436 86.168 213.68 86.168C211.944 86.168 210.579 85.678 209.585 84.698C208.591 83.718 208.094 82.374 208.094 80.666C208.094 79.588 208.311 78.629 208.745 77.789C209.179 76.949 209.788 76.298 210.572 75.836C211.356 75.36 212.245 75.122 213.239 75.122C214.695 75.122 215.843 75.598 216.683 76.55C217.537 77.488 217.964 78.783 217.964 80.435V80.834ZM213.302 77.012C212.602 77.012 212.028 77.222 211.58 77.642C211.146 78.048 210.866 78.643 210.74 79.427H215.675C215.591 78.629 215.346 78.027 214.94 77.621C214.548 77.215 214.002 77.012 213.302 77.012Z" fill="#FAFAFA"/>
<path d="M334.617 71.048H340.119C342.569 71.048 344.466 71.699 345.81 73.001C347.168 74.303 347.847 76.137 347.847 78.503C347.847 80.883 347.168 82.731 345.81 84.047C344.466 85.349 342.569 86 340.119 86H334.617V71.048ZM339.951 83.795C343.395 83.795 345.117 82.031 345.117 78.503C345.117 75.003 343.395 73.253 339.951 73.253H337.326V83.795H339.951ZM359.706 80.834H352.398C352.454 81.968 352.734 82.808 353.238 83.354C353.756 83.886 354.519 84.152 355.527 84.152C356.689 84.152 357.767 83.774 358.761 83.018L359.517 84.824C359.013 85.23 358.39 85.559 357.648 85.811C356.92 86.049 356.178 86.168 355.422 86.168C353.686 86.168 352.321 85.678 351.327 84.698C350.333 83.718 349.836 82.374 349.836 80.666C349.836 79.588 350.053 78.629 350.487 77.789C350.921 76.949 351.53 76.298 352.314 75.836C353.098 75.36 353.987 75.122 354.981 75.122C356.437 75.122 357.585 75.598 358.425 76.55C359.279 77.488 359.706 78.783 359.706 80.435V80.834ZM355.044 77.012C354.344 77.012 353.77 77.222 353.322 77.642C352.888 78.048 352.608 78.643 352.482 79.427H357.417C357.333 78.629 357.088 78.027 356.682 77.621C356.29 77.215 355.744 77.012 355.044 77.012ZM365.206 75.395H372.178V86H369.553V77.369H365.206V86H362.581V77.369H360.544V75.395H362.581V74.324C362.581 73.372 362.728 72.623 363.022 72.077C363.316 71.517 363.792 71.111 364.45 70.859C365.122 70.607 366.032 70.481 367.18 70.481H367.957V72.413H367.453C366.795 72.413 366.312 72.469 366.004 72.581C365.696 72.679 365.486 72.882 365.374 73.19C365.262 73.484 365.206 73.96 365.206 74.618V75.395ZM372.346 70.481V73.127H369.385V70.481H372.346ZM381.082 75.122C383.616 75.122 384.883 76.578 384.883 79.49V86H382.258V79.616C382.258 78.776 382.097 78.167 381.775 77.789C381.453 77.397 380.956 77.201 380.284 77.201C379.486 77.201 378.842 77.46 378.352 77.978C377.862 78.482 377.617 79.154 377.617 79.994V86H375.013V78.398C375.013 77.278 374.957 76.277 374.845 75.395H377.302L377.491 77.138C377.855 76.494 378.345 75.997 378.961 75.647C379.591 75.297 380.298 75.122 381.082 75.122ZM396.948 80.834H389.64C389.696 81.968 389.976 82.808 390.48 83.354C390.998 83.886 391.761 84.152 392.769 84.152C393.931 84.152 395.009 83.774 396.003 83.018L396.759 84.824C396.255 85.23 395.632 85.559 394.89 85.811C394.162 86.049 393.42 86.168 392.664 86.168C390.928 86.168 389.563 85.678 388.569 84.698C387.575 83.718 387.078 82.374 387.078 80.666C387.078 79.588 387.295 78.629 387.729 77.789C388.163 76.949 388.772 76.298 389.556 75.836C390.34 75.36 391.229 75.122 392.223 75.122C393.679 75.122 394.827 75.598 395.667 76.55C396.521 77.488 396.948 78.783 396.948 80.435V80.834ZM392.286 77.012C391.586 77.012 391.012 77.222 390.564 77.642C390.13 78.048 389.85 78.643 389.724 79.427H394.659C394.575 78.629 394.33 78.027 393.924 77.621C393.532 77.215 392.986 77.012 392.286 77.012Z" fill="#FAFAFA"/>
<path d="M518.617 71.048H521.326V86H518.617V71.048ZM534.518 70.544V86H531.935V84.299C531.613 84.887 531.151 85.349 530.549 85.685C529.947 86.007 529.261 86.168 528.491 86.168C527.581 86.168 526.769 85.937 526.055 85.475C525.341 85.013 524.781 84.362 524.375 83.522C523.983 82.668 523.787 81.695 523.787 80.603C523.787 79.511 523.983 78.552 524.375 77.726C524.767 76.9 525.32 76.263 526.034 75.815C526.748 75.353 527.567 75.122 528.491 75.122C529.247 75.122 529.919 75.283 530.507 75.605C531.109 75.913 531.571 76.354 531.893 76.928V70.544H534.518ZM529.184 84.11C530.052 84.11 530.724 83.809 531.2 83.207C531.69 82.605 531.935 81.751 531.935 80.645C531.935 79.539 531.697 78.685 531.221 78.083C530.745 77.481 530.073 77.18 529.205 77.18C528.323 77.18 527.637 77.481 527.147 78.083C526.671 78.671 526.433 79.511 526.433 80.603C526.433 81.709 526.671 82.57 527.147 83.186C527.637 83.802 528.316 84.11 529.184 84.11ZM546.659 80.834H539.351C539.407 81.968 539.687 82.808 540.191 83.354C540.709 83.886 541.472 84.152 542.48 84.152C543.642 84.152 544.72 83.774 545.714 83.018L546.47 84.824C545.966 85.23 545.343 85.559 544.601 85.811C543.873 86.049 543.131 86.168 542.375 86.168C540.639 86.168 539.274 85.678 538.28 84.698C537.286 83.718 536.789 82.374 536.789 80.666C536.789 79.588 537.006 78.629 537.44 77.789C537.874 76.949 538.483 76.298 539.267 75.836C540.051 75.36 540.94 75.122 541.934 75.122C543.39 75.122 544.538 75.598 545.378 76.55C546.232 77.488 546.659 78.783 546.659 80.435V80.834ZM541.997 77.012C541.297 77.012 540.723 77.222 540.275 77.642C539.841 78.048 539.561 78.643 539.435 79.427H544.37C544.286 78.629 544.041 78.027 543.635 77.621C543.243 77.215 542.697 77.012 541.997 77.012ZM559.025 75.395V86H556.442V84.299C556.12 84.887 555.658 85.349 555.056 85.685C554.454 86.007 553.768 86.168 552.998 86.168C552.074 86.168 551.255 85.944 550.541 85.496C549.827 85.048 549.274 84.411 548.882 83.585C548.49 82.759 548.294 81.8 548.294 80.708C548.294 79.616 548.49 78.65 548.882 77.81C549.288 76.956 549.848 76.298 550.562 75.836C551.276 75.36 552.088 75.122 552.998 75.122C553.768 75.122 554.454 75.29 555.056 75.626C555.658 75.948 556.12 76.403 556.442 76.991V75.395H559.025ZM553.712 84.11C554.58 84.11 555.252 83.809 555.728 83.207C556.204 82.605 556.442 81.758 556.442 80.666C556.442 79.546 556.204 78.685 555.728 78.083C555.252 77.481 554.573 77.18 553.691 77.18C552.823 77.18 552.144 77.495 551.654 78.125C551.178 78.741 550.94 79.602 550.94 80.708C550.94 81.8 551.178 82.64 551.654 83.228C552.144 83.816 552.83 84.11 553.712 84.11ZM565.223 77.369V82.115C565.223 83.361 565.804 83.984 566.966 83.984C567.288 83.984 567.638 83.928 568.016 83.816V85.895C567.554 86.063 566.994 86.147 566.336 86.147C565.132 86.147 564.208 85.811 563.564 85.139C562.92 84.467 562.598 83.501 562.598 82.241V77.369H560.561V75.395H562.598V72.812L565.223 71.93V75.395H568.037V77.369H565.223ZM579.123 80.834H571.815C571.871 81.968 572.151 82.808 572.655 83.354C573.173 83.886 573.936 84.152 574.944 84.152C576.106 84.152 577.184 83.774 578.178 83.018L578.934 84.824C578.43 85.23 577.807 85.559 577.065 85.811C576.337 86.049 575.595 86.168 574.839 86.168C573.103 86.168 571.738 85.678 570.744 84.698C569.75 83.718 569.253 82.374 569.253 80.666C569.253 79.588 569.47 78.629 569.904 77.789C570.338 76.949 570.947 76.298 571.731 75.836C572.515 75.36 573.404 75.122 574.398 75.122C575.854 75.122 577.002 75.598 577.842 76.55C578.696 77.488 579.123 78.783 579.123 80.435V80.834ZM574.461 77.012C573.761 77.012 573.187 77.222 572.739 77.642C572.305 78.048 572.025 78.643 571.899 79.427H576.834C576.75 78.629 576.505 78.027 576.099 77.621C575.707 77.215 575.161 77.012 574.461 77.012Z" fill="#FAFAFA"/>
<path d="M682.617 71.048H689.106C690.716 71.048 691.969 71.44 692.865 72.224C693.761 72.994 694.209 74.051 694.209 75.395C694.209 76.739 693.754 77.803 692.844 78.587C691.948 79.371 690.702 79.763 689.106 79.763H685.326V86H682.617V71.048ZM688.791 77.663C689.729 77.663 690.436 77.474 690.912 77.096C691.402 76.704 691.647 76.144 691.647 75.416C691.647 74.674 691.409 74.114 690.933 73.736C690.457 73.344 689.743 73.148 688.791 73.148H685.326V77.663H688.791ZM701.921 75.143C702.327 75.143 702.677 75.199 702.971 75.311L702.95 77.705C702.502 77.523 702.04 77.432 701.564 77.432C700.668 77.432 699.982 77.691 699.506 78.209C699.044 78.727 698.813 79.413 698.813 80.267V86H696.209V78.398C696.209 77.278 696.153 76.277 696.041 75.395H698.498L698.708 77.264C698.974 76.578 699.394 76.053 699.968 75.689C700.542 75.325 701.193 75.143 701.921 75.143ZM709.037 86.168C707.959 86.168 707.007 85.944 706.181 85.496C705.369 85.048 704.739 84.411 704.291 83.585C703.857 82.745 703.64 81.765 703.64 80.645C703.64 79.525 703.857 78.552 704.291 77.726C704.739 76.886 705.369 76.242 706.181 75.794C707.007 75.346 707.959 75.122 709.037 75.122C710.101 75.122 711.039 75.346 711.851 75.794C712.663 76.242 713.286 76.886 713.72 77.726C714.168 78.552 714.392 79.525 714.392 80.645C714.392 81.765 714.168 82.745 713.72 83.585C713.286 84.411 712.663 85.048 711.851 85.496C711.039 85.944 710.101 86.168 709.037 86.168ZM709.016 84.11C709.912 84.11 710.591 83.823 711.053 83.249C711.529 82.661 711.767 81.793 711.767 80.645C711.767 79.511 711.529 78.65 711.053 78.062C710.577 77.46 709.905 77.159 709.037 77.159C708.155 77.159 707.476 77.46 707 78.062C706.524 78.65 706.286 79.511 706.286 80.645C706.286 81.793 706.517 82.661 706.979 83.249C707.455 83.823 708.134 84.11 709.016 84.11ZM719.933 77.369V82.115C719.933 83.361 720.514 83.984 721.676 83.984C721.998 83.984 722.348 83.928 722.726 83.816V85.895C722.264 86.063 721.704 86.147 721.046 86.147C719.842 86.147 718.918 85.811 718.274 85.139C717.63 84.467 717.308 83.501 717.308 82.241V77.369H715.271V75.395H717.308V72.812L719.933 71.93V75.395H722.747V77.369H719.933ZM729.36 86.168C728.282 86.168 727.33 85.944 726.504 85.496C725.692 85.048 725.062 84.411 724.614 83.585C724.18 82.745 723.963 81.765 723.963 80.645C723.963 79.525 724.18 78.552 724.614 77.726C725.062 76.886 725.692 76.242 726.504 75.794C727.33 75.346 728.282 75.122 729.36 75.122C730.424 75.122 731.362 75.346 732.174 75.794C732.986 76.242 733.609 76.886 734.043 77.726C734.491 78.552 734.715 79.525 734.715 80.645C734.715 81.765 734.491 82.745 734.043 83.585C733.609 84.411 732.986 85.048 732.174 85.496C731.362 85.944 730.424 86.168 729.36 86.168ZM729.339 84.11C730.235 84.11 730.914 83.823 731.376 83.249C731.852 82.661 732.09 81.793 732.09 80.645C732.09 79.511 731.852 78.65 731.376 78.062C730.9 77.46 730.228 77.159 729.36 77.159C728.478 77.159 727.799 77.46 727.323 78.062C726.847 78.65 726.609 79.511 726.609 80.645C726.609 81.793 726.84 82.661 727.302 83.249C727.778 83.823 728.457 84.11 729.339 84.11ZM740.256 77.369V82.115C740.256 83.361 740.837 83.984 741.999 83.984C742.321 83.984 742.671 83.928 743.049 83.816V85.895C742.587 86.063 742.027 86.147 741.369 86.147C740.165 86.147 739.241 85.811 738.597 85.139C737.953 84.467 737.631 83.501 737.631 82.241V77.369H735.594V75.395H737.631V72.812L740.256 71.93V75.395H743.07V77.369H740.256ZM755.097 75.395L750.162 86.714C749.602 88.03 748.888 88.989 748.02 89.591C747.152 90.193 746.081 90.592 744.807 90.788L744.219 88.772C745.213 88.548 745.955 88.261 746.445 87.911C746.949 87.575 747.355 87.071 747.663 86.399L747.999 85.622L743.589 75.395H746.34L749.385 83.018L752.493 75.395H755.097ZM762.509 75.122C763.419 75.122 764.224 75.36 764.924 75.836C765.638 76.298 766.191 76.956 766.583 77.81C766.989 78.65 767.192 79.616 767.192 80.708C767.192 81.8 766.996 82.759 766.604 83.585C766.212 84.411 765.659 85.048 764.945 85.496C764.245 85.944 763.433 86.168 762.509 86.168C761.739 86.168 761.053 86.007 760.451 85.685C759.849 85.349 759.387 84.887 759.065 84.299V90.536H756.461V78.398C756.461 77.278 756.405 76.277 756.293 75.395H758.75L758.96 77.222C759.24 76.564 759.695 76.053 760.325 75.689C760.955 75.311 761.683 75.122 762.509 75.122ZM761.795 84.11C762.677 84.11 763.356 83.816 763.832 83.228C764.308 82.64 764.546 81.8 764.546 80.708C764.546 79.602 764.308 78.741 763.832 78.125C763.356 77.495 762.684 77.18 761.816 77.18C760.92 77.18 760.234 77.481 759.758 78.083C759.282 78.685 759.044 79.546 759.044 80.666C759.044 81.772 759.282 82.626 759.758 83.228C760.234 83.816 760.913 84.11 761.795 84.11ZM778.766 80.834H771.458C771.514 81.968 771.794 82.808 772.298 83.354C772.816 83.886 773.579 84.152 774.587 84.152C775.749 84.152 776.827 83.774 777.821 83.018L778.577 84.824C778.073 85.23 777.45 85.559 776.708 85.811C775.98 86.049 775.238 86.168 774.482 86.168C772.746 86.168 771.381 85.678 770.387 84.698C769.393 83.718 768.896 82.374 768.896 80.666C768.896 79.588 769.113 78.629 769.547 77.789C769.981 76.949 770.59 76.298 771.374 75.836C772.158 75.36 773.047 75.122 774.041 75.122C775.497 75.122 776.645 75.598 777.485 76.55C778.339 77.488 778.766 78.783 778.766 80.435V80.834ZM774.104 77.012C773.404 77.012 772.83 77.222 772.382 77.642C771.948 78.048 771.668 78.643 771.542 79.427H776.477C776.393 78.629 776.148 78.027 775.742 77.621C775.35 77.215 774.804 77.012 774.104 77.012Z" fill="#FAFAFA"/>
<path d="M114.232 140V130.032H115.38V140H114.232ZM117.701 140V134.932C117.701 134.605 117.692 134.279 117.673 133.952C117.664 133.616 117.636 133.285 117.589 132.958H118.667L118.793 134.414L118.653 134.526C118.849 133.957 119.176 133.527 119.633 133.238C120.091 132.939 120.618 132.79 121.215 132.79C122.905 132.79 123.749 133.719 123.749 135.576V140H122.615V135.632C122.615 134.979 122.485 134.503 122.223 134.204C121.962 133.896 121.551 133.742 120.991 133.742C120.338 133.742 119.815 133.943 119.423 134.344C119.031 134.745 118.835 135.287 118.835 135.968V140H117.701ZM124.897 133.854V132.958H129.419V133.854H124.897ZM129.391 138.992V139.958C129.232 140.005 129.073 140.037 128.915 140.056C128.765 140.084 128.597 140.098 128.411 140.098C127.757 140.098 127.235 139.911 126.843 139.538C126.46 139.165 126.269 138.605 126.269 137.858V131.152L127.403 130.746V137.704C127.403 138.077 127.454 138.367 127.557 138.572C127.669 138.777 127.818 138.922 128.005 139.006C128.191 139.081 128.401 139.118 128.635 139.118C128.775 139.118 128.901 139.109 129.013 139.09C129.125 139.071 129.251 139.039 129.391 138.992ZM136.553 139.16C136.245 139.449 135.849 139.678 135.363 139.846C134.887 140.014 134.397 140.098 133.893 140.098C133.165 140.098 132.535 139.953 132.003 139.664C131.481 139.375 131.075 138.959 130.785 138.418C130.505 137.867 130.365 137.214 130.365 136.458C130.365 135.73 130.505 135.091 130.785 134.54C131.065 133.989 131.453 133.56 131.947 133.252C132.451 132.944 133.03 132.79 133.683 132.79C134.309 132.79 134.845 132.93 135.293 133.21C135.741 133.481 136.082 133.873 136.315 134.386C136.558 134.899 136.679 135.515 136.679 136.234V136.444H131.359V135.702H136.035L135.671 136.22C135.69 135.399 135.527 134.769 135.181 134.33C134.845 133.891 134.351 133.672 133.697 133.672C133.016 133.672 132.479 133.915 132.087 134.4C131.705 134.876 131.513 135.539 131.513 136.388C131.513 137.303 131.714 137.993 132.115 138.46C132.526 138.927 133.123 139.16 133.907 139.16C134.318 139.16 134.71 139.095 135.083 138.964C135.466 138.824 135.83 138.614 136.175 138.334L136.553 139.16ZM138.401 140V134.932C138.401 134.605 138.391 134.279 138.373 133.952C138.363 133.616 138.335 133.285 138.289 132.958H139.367L139.521 134.694L139.367 134.652C139.497 134.036 139.777 133.574 140.207 133.266C140.645 132.949 141.135 132.79 141.677 132.79C141.798 132.79 141.91 132.799 142.013 132.818C142.125 132.827 142.227 132.846 142.321 132.874L142.293 133.91C142.078 133.835 141.831 133.798 141.551 133.798C141.065 133.798 140.673 133.905 140.375 134.12C140.085 134.335 139.871 134.61 139.731 134.946C139.6 135.273 139.535 135.618 139.535 135.982V140H138.401ZM145.969 140L142.973 132.972H144.163L146.711 139.174H146.375L148.951 132.972H150.085L147.047 140H145.969ZM151.334 140V132.958H152.468V140H151.334ZM151.222 129.976H152.608V131.264H151.222V129.976ZM160.438 139.16C160.13 139.449 159.733 139.678 159.248 139.846C158.772 140.014 158.282 140.098 157.778 140.098C157.05 140.098 156.42 139.953 155.888 139.664C155.365 139.375 154.959 138.959 154.67 138.418C154.39 137.867 154.25 137.214 154.25 136.458C154.25 135.73 154.39 135.091 154.67 134.54C154.95 133.989 155.337 133.56 155.832 133.252C156.336 132.944 156.915 132.79 157.568 132.79C158.193 132.79 158.73 132.93 159.178 133.21C159.626 133.481 159.967 133.873 160.2 134.386C160.443 134.899 160.564 135.515 160.564 136.234V136.444H155.244V135.702H159.92L159.556 136.22C159.575 135.399 159.411 134.769 159.066 134.33C158.73 133.891 158.235 133.672 157.582 133.672C156.901 133.672 156.364 133.915 155.972 134.4C155.589 134.876 155.398 135.539 155.398 136.388C155.398 137.303 155.599 137.993 156 138.46C156.411 138.927 157.008 139.16 157.792 139.16C158.203 139.16 158.595 139.095 158.968 138.964C159.351 138.824 159.715 138.614 160.06 138.334L160.438 139.16ZM164.093 140L161.489 132.958H162.679L164.849 139.16H164.485L166.725 132.958H167.719L169.931 139.16H169.567L171.779 132.958H172.899L170.295 140H169.203L166.879 133.658H167.495L165.185 140H164.093ZM176.628 140.098C175.443 140.098 174.505 139.795 173.814 139.188L174.192 138.348C174.566 138.637 174.948 138.852 175.34 138.992C175.742 139.123 176.185 139.188 176.67 139.188C177.202 139.188 177.604 139.099 177.874 138.922C178.154 138.735 178.294 138.469 178.294 138.124C178.294 137.844 178.201 137.625 178.014 137.466C177.828 137.298 177.52 137.163 177.09 137.06L175.9 136.78C175.312 136.649 174.855 136.416 174.528 136.08C174.211 135.744 174.052 135.343 174.052 134.876C174.052 134.465 174.164 134.106 174.388 133.798C174.612 133.481 174.925 133.233 175.326 133.056C175.728 132.879 176.204 132.79 176.754 132.79C177.249 132.79 177.716 132.869 178.154 133.028C178.593 133.187 178.962 133.415 179.26 133.714L178.882 134.54C178.546 134.26 178.201 134.055 177.846 133.924C177.501 133.784 177.137 133.714 176.754 133.714C176.25 133.714 175.858 133.812 175.578 134.008C175.308 134.204 175.172 134.47 175.172 134.806C175.172 135.095 175.256 135.324 175.424 135.492C175.602 135.66 175.882 135.791 176.264 135.884L177.454 136.178C178.117 136.318 178.602 136.551 178.91 136.878C179.228 137.195 179.386 137.601 179.386 138.096C179.386 138.703 179.139 139.188 178.644 139.552C178.15 139.916 177.478 140.098 176.628 140.098Z" fill="black"/>
<circle cx="103" cy="135" r="2" fill="black"/>
<path d="M304.232 140V130.032H308.208C309.235 130.032 310.033 130.279 310.602 130.774C311.181 131.269 311.47 131.95 311.47 132.818C311.47 133.677 311.181 134.358 310.602 134.862C310.023 135.366 309.225 135.618 308.208 135.618H305.38V140H304.232ZM305.38 134.666H308.11C308.847 134.666 309.403 134.507 309.776 134.19C310.149 133.863 310.336 133.406 310.336 132.818C310.336 132.23 310.149 131.777 309.776 131.46C309.403 131.143 308.847 130.984 308.11 130.984H305.38V134.666ZM318.747 139.16C318.439 139.449 318.042 139.678 317.557 139.846C317.081 140.014 316.591 140.098 316.087 140.098C315.359 140.098 314.729 139.953 314.197 139.664C313.674 139.375 313.268 138.959 312.979 138.418C312.699 137.867 312.559 137.214 312.559 136.458C312.559 135.73 312.699 135.091 312.979 134.54C313.259 133.989 313.646 133.56 314.141 133.252C314.645 132.944 315.223 132.79 315.877 132.79C316.502 132.79 317.039 132.93 317.487 133.21C317.935 133.481 318.275 133.873 318.509 134.386C318.751 134.899 318.873 135.515 318.873 136.234V136.444H313.553V135.702H318.229L317.865 136.22C317.883 135.399 317.72 134.769 317.375 134.33C317.039 133.891 316.544 133.672 315.891 133.672C315.209 133.672 314.673 133.915 314.281 134.4C313.898 134.876 313.707 135.539 313.707 136.388C313.707 137.303 313.907 137.993 314.309 138.46C314.719 138.927 315.317 139.16 316.101 139.16C316.511 139.16 316.903 139.095 317.277 138.964C317.659 138.824 318.023 138.614 318.369 138.334L318.747 139.16ZM320.594 140V134.932C320.594 134.605 320.585 134.279 320.566 133.952C320.557 133.616 320.529 133.285 320.482 132.958H321.56L321.714 134.694L321.56 134.652C321.691 134.036 321.971 133.574 322.4 133.266C322.839 132.949 323.329 132.79 323.87 132.79C323.991 132.79 324.103 132.799 324.206 132.818C324.318 132.827 324.421 132.846 324.514 132.874L324.486 133.91C324.271 133.835 324.024 133.798 323.744 133.798C323.259 133.798 322.867 133.905 322.568 134.12C322.279 134.335 322.064 134.61 321.924 134.946C321.793 135.273 321.728 135.618 321.728 135.982V140H320.594ZM327.978 140.098C326.793 140.098 325.855 139.795 325.164 139.188L325.542 138.348C325.915 138.637 326.298 138.852 326.69 138.992C327.091 139.123 327.535 139.188 328.02 139.188C328.552 139.188 328.953 139.099 329.224 138.922C329.504 138.735 329.644 138.469 329.644 138.124C329.644 137.844 329.551 137.625 329.364 137.466C329.177 137.298 328.869 137.163 328.44 137.06L327.25 136.78C326.662 136.649 326.205 136.416 325.878 136.08C325.561 135.744 325.402 135.343 325.402 134.876C325.402 134.465 325.514 134.106 325.738 133.798C325.962 133.481 326.275 133.233 326.676 133.056C327.077 132.879 327.553 132.79 328.104 132.79C328.599 132.79 329.065 132.869 329.504 133.028C329.943 133.187 330.311 133.415 330.61 133.714L330.232 134.54C329.896 134.26 329.551 134.055 329.196 133.924C328.851 133.784 328.487 133.714 328.104 133.714C327.6 133.714 327.208 133.812 326.928 134.008C326.657 134.204 326.522 134.47 326.522 134.806C326.522 135.095 326.606 135.324 326.774 135.492C326.951 135.66 327.231 135.791 327.614 135.884L328.804 136.178C329.467 136.318 329.952 136.551 330.26 136.878C330.577 137.195 330.736 137.601 330.736 138.096C330.736 138.703 330.489 139.188 329.994 139.552C329.499 139.916 328.827 140.098 327.978 140.098ZM335.455 140.098C334.783 140.098 334.195 139.949 333.691 139.65C333.197 139.351 332.809 138.931 332.529 138.39C332.259 137.839 332.123 137.191 332.123 136.444C332.123 135.707 332.259 135.063 332.529 134.512C332.809 133.961 333.197 133.537 333.691 133.238C334.195 132.939 334.783 132.79 335.455 132.79C336.127 132.79 336.711 132.939 337.205 133.238C337.709 133.537 338.097 133.961 338.367 134.512C338.647 135.063 338.787 135.707 338.787 136.444C338.787 137.191 338.647 137.839 338.367 138.39C338.097 138.931 337.709 139.351 337.205 139.65C336.711 139.949 336.127 140.098 335.455 140.098ZM335.455 139.16C336.146 139.16 336.678 138.931 337.051 138.474C337.434 138.007 337.625 137.331 337.625 136.444C337.625 135.576 337.434 134.909 337.051 134.442C336.669 133.975 336.137 133.742 335.455 133.742C334.774 133.742 334.237 133.975 333.845 134.442C333.463 134.909 333.271 135.576 333.271 136.444C333.271 137.331 333.458 138.007 333.831 138.474C334.214 138.931 334.755 139.16 335.455 139.16ZM340.555 140V134.932C340.555 134.605 340.546 134.279 340.527 133.952C340.518 133.616 340.49 133.285 340.443 132.958H341.521L341.647 134.414L341.507 134.526C341.703 133.957 342.03 133.527 342.487 133.238C342.944 132.939 343.472 132.79 344.069 132.79C345.758 132.79 346.603 133.719 346.603 135.576V140H345.469V135.632C345.469 134.979 345.338 134.503 345.077 134.204C344.816 133.896 344.405 133.742 343.845 133.742C343.192 133.742 342.669 133.943 342.277 134.344C341.885 134.745 341.689 135.287 341.689 135.968V140H340.555ZM351.446 140.098C350.821 140.098 350.27 139.953 349.794 139.664C349.328 139.365 348.964 138.945 348.702 138.404C348.45 137.853 348.324 137.209 348.324 136.472C348.324 135.735 348.455 135.091 348.716 134.54C348.978 133.989 349.342 133.56 349.808 133.252C350.284 132.944 350.83 132.79 351.446 132.79C352.09 132.79 352.636 132.949 353.084 133.266C353.532 133.583 353.836 134.036 353.994 134.624L353.826 134.736V132.958H354.946V140H353.826V138.18L353.994 138.264C353.836 138.852 353.532 139.305 353.084 139.622C352.636 139.939 352.09 140.098 351.446 140.098ZM351.67 139.16C352.361 139.16 352.893 138.927 353.266 138.46C353.64 137.984 353.826 137.312 353.826 136.444C353.826 135.576 353.635 134.909 353.252 134.442C352.879 133.975 352.352 133.742 351.67 133.742C350.98 133.742 350.438 133.985 350.046 134.47C349.664 134.946 349.472 135.613 349.472 136.472C349.472 137.331 349.664 137.993 350.046 138.46C350.438 138.927 350.98 139.16 351.67 139.16Z" fill="black"/>
<circle cx="293" cy="135" r="2" fill="black"/>
<path d="M304.232 163V153.032H308.208C309.235 153.032 310.033 153.279 310.602 153.774C311.181 154.269 311.47 154.95 311.47 155.818C311.47 156.677 311.181 157.358 310.602 157.862C310.023 158.366 309.225 158.618 308.208 158.618H305.38V163H304.232ZM305.38 157.666H308.11C308.847 157.666 309.403 157.507 309.776 157.19C310.149 156.863 310.336 156.406 310.336 155.818C310.336 155.23 310.149 154.777 309.776 154.46C309.403 154.143 308.847 153.984 308.11 153.984H305.38V157.666ZM313.074 163V157.932C313.074 157.605 313.065 157.279 313.046 156.952C313.037 156.616 313.009 156.285 312.962 155.958H314.04L314.194 157.694L314.04 157.652C314.171 157.036 314.451 156.574 314.88 156.266C315.319 155.949 315.809 155.79 316.35 155.79C316.472 155.79 316.584 155.799 316.686 155.818C316.798 155.827 316.901 155.846 316.994 155.874L316.966 156.91C316.752 156.835 316.504 156.798 316.224 156.798C315.739 156.798 315.347 156.905 315.048 157.12C314.759 157.335 314.544 157.61 314.404 157.946C314.274 158.273 314.208 158.618 314.208 158.982V163H313.074ZM320.922 163.098C320.25 163.098 319.662 162.949 319.158 162.65C318.663 162.351 318.276 161.931 317.996 161.39C317.725 160.839 317.59 160.191 317.59 159.444C317.59 158.707 317.725 158.063 317.996 157.512C318.276 156.961 318.663 156.537 319.158 156.238C319.662 155.939 320.25 155.79 320.922 155.79C321.594 155.79 322.177 155.939 322.672 156.238C323.176 156.537 323.563 156.961 323.834 157.512C324.114 158.063 324.254 158.707 324.254 159.444C324.254 160.191 324.114 160.839 323.834 161.39C323.563 161.931 323.176 162.351 322.672 162.65C322.177 162.949 321.594 163.098 320.922 163.098ZM320.922 162.16C321.613 162.16 322.145 161.931 322.518 161.474C322.901 161.007 323.092 160.331 323.092 159.444C323.092 158.576 322.901 157.909 322.518 157.442C322.135 156.975 321.603 156.742 320.922 156.742C320.241 156.742 319.704 156.975 319.312 157.442C318.929 157.909 318.738 158.576 318.738 159.444C318.738 160.331 318.925 161.007 319.298 161.474C319.681 161.931 320.222 162.16 320.922 162.16ZM326.022 163V152.696H327.156V157.764L327.002 157.624C327.16 157.045 327.464 156.597 327.912 156.28C328.36 155.953 328.901 155.79 329.536 155.79C330.161 155.79 330.707 155.939 331.174 156.238C331.64 156.537 332.004 156.957 332.266 157.498C332.536 158.039 332.672 158.679 332.672 159.416C332.672 160.153 332.536 160.802 332.266 161.362C332.004 161.913 331.636 162.342 331.16 162.65C330.693 162.949 330.152 163.098 329.536 163.098C328.901 163.098 328.36 162.939 327.912 162.622C327.464 162.305 327.16 161.852 327.002 161.264L327.156 161.11V163H326.022ZM329.326 162.16C330.007 162.16 330.539 161.922 330.922 161.446C331.304 160.961 331.496 160.284 331.496 159.416C331.496 158.567 331.304 157.909 330.922 157.442C330.539 156.975 330.007 156.742 329.326 156.742C328.626 156.742 328.089 156.98 327.716 157.456C327.342 157.923 327.156 158.585 327.156 159.444C327.156 160.312 327.342 160.984 327.716 161.46C328.089 161.927 328.626 162.16 329.326 162.16ZM334.416 163V152.696H335.55V163H334.416ZM343.52 162.16C343.212 162.449 342.815 162.678 342.33 162.846C341.854 163.014 341.364 163.098 340.86 163.098C340.132 163.098 339.502 162.953 338.97 162.664C338.447 162.375 338.041 161.959 337.752 161.418C337.472 160.867 337.332 160.214 337.332 159.458C337.332 158.73 337.472 158.091 337.752 157.54C338.032 156.989 338.419 156.56 338.914 156.252C339.418 155.944 339.997 155.79 340.65 155.79C341.275 155.79 341.812 155.93 342.26 156.21C342.708 156.481 343.049 156.873 343.282 157.386C343.525 157.899 343.646 158.515 343.646 159.234V159.444H338.326V158.702H343.002L342.638 159.22C342.657 158.399 342.493 157.769 342.148 157.33C341.812 156.891 341.317 156.672 340.664 156.672C339.983 156.672 339.446 156.915 339.054 157.4C338.671 157.876 338.48 158.539 338.48 159.388C338.48 160.303 338.681 160.993 339.082 161.46C339.493 161.927 340.09 162.16 340.874 162.16C341.285 162.16 341.677 162.095 342.05 161.964C342.433 161.824 342.797 161.614 343.142 161.334L343.52 162.16ZM345.367 163V157.932C345.367 157.605 345.358 157.279 345.339 156.952C345.33 156.616 345.302 156.285 345.255 155.958H346.333L346.459 157.414L346.319 157.512C346.487 156.961 346.777 156.537 347.187 156.238C347.607 155.939 348.102 155.79 348.671 155.79C349.353 155.79 349.88 155.958 350.253 156.294C350.636 156.63 350.879 157.143 350.981 157.834L350.645 157.652C350.795 157.083 351.093 156.63 351.541 156.294C351.999 155.958 352.545 155.79 353.179 155.79C353.954 155.79 354.537 156.023 354.929 156.49C355.321 156.947 355.517 157.643 355.517 158.576V163H354.383V158.632C354.383 157.979 354.267 157.503 354.033 157.204C353.8 156.896 353.431 156.742 352.927 156.742C352.339 156.742 351.873 156.943 351.527 157.344C351.191 157.745 351.023 158.291 351.023 158.982V163H349.889V158.632C349.889 157.979 349.768 157.503 349.525 157.204C349.292 156.896 348.923 156.742 348.419 156.742C347.822 156.742 347.351 156.943 347.005 157.344C346.669 157.745 346.501 158.291 346.501 158.982V163H345.367ZM364.626 163.112C364.113 163.112 363.632 163.07 363.184 162.986C362.736 162.893 362.321 162.753 361.938 162.566C361.556 162.37 361.21 162.132 360.902 161.852L361.336 160.97C361.84 161.39 362.344 161.689 362.848 161.866C363.362 162.043 363.959 162.132 364.64 162.132C365.434 162.132 366.05 161.978 366.488 161.67C366.927 161.353 367.146 160.909 367.146 160.34C367.146 159.995 367.034 159.719 366.81 159.514C366.596 159.299 366.297 159.131 365.914 159.01C365.541 158.879 365.116 158.758 364.64 158.646C364.164 158.543 363.712 158.427 363.282 158.296C362.853 158.156 362.47 157.983 362.134 157.778C361.808 157.573 361.551 157.311 361.364 156.994C361.178 156.677 361.084 156.28 361.084 155.804C361.084 155.235 361.234 154.735 361.532 154.306C361.831 153.867 362.251 153.527 362.792 153.284C363.334 153.041 363.973 152.92 364.71 152.92C365.168 152.92 365.606 152.971 366.026 153.074C366.446 153.167 366.834 153.307 367.188 153.494C367.552 153.681 367.874 153.909 368.154 154.18L367.706 155.062C367.249 154.661 366.778 154.367 366.292 154.18C365.807 153.993 365.28 153.9 364.71 153.9C363.936 153.9 363.329 154.063 362.89 154.39C362.452 154.717 362.232 155.174 362.232 155.762C362.232 156.126 362.33 156.42 362.526 156.644C362.722 156.868 362.998 157.05 363.352 157.19C363.707 157.321 364.113 157.442 364.57 157.554C365.056 157.666 365.522 157.787 365.97 157.918C366.418 158.049 366.815 158.212 367.16 158.408C367.515 158.595 367.795 158.842 368 159.15C368.206 159.449 368.308 159.831 368.308 160.298C368.308 160.867 368.159 161.362 367.86 161.782C367.562 162.202 367.137 162.529 366.586 162.762C366.036 162.995 365.382 163.112 364.626 163.112ZM369.01 156.854V155.958H373.532V156.854H369.01ZM373.504 161.992V162.958C373.345 163.005 373.187 163.037 373.028 163.056C372.879 163.084 372.711 163.098 372.524 163.098C371.871 163.098 371.348 162.911 370.956 162.538C370.573 162.165 370.382 161.605 370.382 160.858V154.152L371.516 153.746V160.704C371.516 161.077 371.567 161.367 371.67 161.572C371.782 161.777 371.931 161.922 372.118 162.006C372.305 162.081 372.515 162.118 372.748 162.118C372.888 162.118 373.014 162.109 373.126 162.09C373.238 162.071 373.364 162.039 373.504 161.992ZM377.601 163.098C376.975 163.098 376.425 162.953 375.949 162.664C375.482 162.365 375.118 161.945 374.857 161.404C374.605 160.853 374.479 160.209 374.479 159.472C374.479 158.735 374.609 158.091 374.871 157.54C375.132 156.989 375.496 156.56 375.963 156.252C376.439 155.944 376.985 155.79 377.601 155.79C378.245 155.79 378.791 155.949 379.239 156.266C379.687 156.583 379.99 157.036 380.149 157.624L379.981 157.736V155.958H381.101V163H379.981V161.18L380.149 161.264C379.99 161.852 379.687 162.305 379.239 162.622C378.791 162.939 378.245 163.098 377.601 163.098ZM377.825 162.16C378.515 162.16 379.047 161.927 379.421 161.46C379.794 160.984 379.981 160.312 379.981 159.444C379.981 158.576 379.789 157.909 379.407 157.442C379.033 156.975 378.506 156.742 377.825 156.742C377.134 156.742 376.593 156.985 376.201 157.47C375.818 157.946 375.627 158.613 375.627 159.472C375.627 160.331 375.818 160.993 376.201 161.46C376.593 161.927 377.134 162.16 377.825 162.16ZM382.299 156.854V155.958H386.821V156.854H382.299ZM386.793 161.992V162.958C386.635 163.005 386.476 163.037 386.317 163.056C386.168 163.084 386 163.098 385.813 163.098C385.16 163.098 384.637 162.911 384.245 162.538C383.863 162.165 383.671 161.605 383.671 160.858V154.152L384.805 153.746V160.704C384.805 161.077 384.857 161.367 384.959 161.572C385.071 161.777 385.221 161.922 385.407 162.006C385.594 162.081 385.804 162.118 386.037 162.118C386.177 162.118 386.303 162.109 386.415 162.09C386.527 162.071 386.653 162.039 386.793 161.992ZM393.956 162.16C393.648 162.449 393.251 162.678 392.766 162.846C392.29 163.014 391.8 163.098 391.296 163.098C390.568 163.098 389.938 162.953 389.406 162.664C388.883 162.375 388.477 161.959 388.188 161.418C387.908 160.867 387.768 160.214 387.768 159.458C387.768 158.73 387.908 158.091 388.188 157.54C388.468 156.989 388.855 156.56 389.35 156.252C389.854 155.944 390.432 155.79 391.086 155.79C391.711 155.79 392.248 155.93 392.696 156.21C393.144 156.481 393.484 156.873 393.718 157.386C393.96 157.899 394.082 158.515 394.082 159.234V159.444H388.762V158.702H393.438L393.074 159.22C393.092 158.399 392.929 157.769 392.584 157.33C392.248 156.891 391.753 156.672 391.1 156.672C390.418 156.672 389.882 156.915 389.49 157.4C389.107 157.876 388.916 158.539 388.916 159.388C388.916 160.303 389.116 160.993 389.518 161.46C389.928 161.927 390.526 162.16 391.31 162.16C391.72 162.16 392.112 162.095 392.486 161.964C392.868 161.824 393.232 161.614 393.578 161.334L393.956 162.16ZM395.803 163V157.932C395.803 157.605 395.794 157.279 395.775 156.952C395.766 156.616 395.738 156.285 395.691 155.958H396.769L396.895 157.414L396.755 157.512C396.923 156.961 397.212 156.537 397.623 156.238C398.043 155.939 398.538 155.79 399.107 155.79C399.788 155.79 400.316 155.958 400.689 156.294C401.072 156.63 401.314 157.143 401.417 157.834L401.081 157.652C401.23 157.083 401.529 156.63 401.977 156.294C402.434 155.958 402.98 155.79 403.615 155.79C404.39 155.79 404.973 156.023 405.365 156.49C405.757 156.947 405.953 157.643 405.953 158.576V163H404.819V158.632C404.819 157.979 404.702 157.503 404.469 157.204C404.236 156.896 403.867 156.742 403.363 156.742C402.775 156.742 402.308 156.943 401.963 157.344C401.627 157.745 401.459 158.291 401.459 158.982V163H400.325V158.632C400.325 157.979 400.204 157.503 399.961 157.204C399.728 156.896 399.359 156.742 398.855 156.742C398.258 156.742 397.786 156.943 397.441 157.344C397.105 157.745 396.937 158.291 396.937 158.982V163H395.803ZM413.876 162.16C413.568 162.449 413.171 162.678 412.686 162.846C412.21 163.014 411.72 163.098 411.216 163.098C410.488 163.098 409.858 162.953 409.326 162.664C408.803 162.375 408.397 161.959 408.108 161.418C407.828 160.867 407.688 160.214 407.688 159.458C407.688 158.73 407.828 158.091 408.108 157.54C408.388 156.989 408.775 156.56 409.27 156.252C409.774 155.944 410.352 155.79 411.006 155.79C411.631 155.79 412.168 155.93 412.616 156.21C413.064 156.481 413.404 156.873 413.638 157.386C413.88 157.899 414.002 158.515 414.002 159.234V159.444H408.682V158.702H413.358L412.994 159.22C413.012 158.399 412.849 157.769 412.504 157.33C412.168 156.891 411.673 156.672 411.02 156.672C410.338 156.672 409.802 156.915 409.41 157.4C409.027 157.876 408.836 158.539 408.836 159.388C408.836 160.303 409.036 160.993 409.438 161.46C409.848 161.927 410.446 162.16 411.23 162.16C411.64 162.16 412.032 162.095 412.406 161.964C412.788 161.824 413.152 161.614 413.498 161.334L413.876 162.16ZM415.723 163V157.932C415.723 157.605 415.714 157.279 415.695 156.952C415.686 156.616 415.658 156.285 415.611 155.958H416.689L416.815 157.414L416.675 157.526C416.871 156.957 417.198 156.527 417.655 156.238C418.112 155.939 418.64 155.79 419.237 155.79C420.926 155.79 421.771 156.719 421.771 158.576V163H420.637V158.632C420.637 157.979 420.506 157.503 420.245 157.204C419.984 156.896 419.573 156.742 419.013 156.742C418.36 156.742 417.837 156.943 417.445 157.344C417.053 157.745 416.857 158.287 416.857 158.968V163H415.723ZM422.918 156.854V155.958H427.44V156.854H422.918ZM427.412 161.992V162.958C427.254 163.005 427.095 163.037 426.936 163.056C426.787 163.084 426.619 163.098 426.432 163.098C425.779 163.098 425.256 162.911 424.864 162.538C424.482 162.165 424.29 161.605 424.29 160.858V154.152L425.424 153.746V160.704C425.424 161.077 425.476 161.367 425.578 161.572C425.69 161.777 425.84 161.922 426.026 162.006C426.213 162.081 426.423 162.118 426.656 162.118C426.796 162.118 426.922 162.109 427.034 162.09C427.146 162.071 427.272 162.039 427.412 161.992Z" fill="black"/>
<circle cx="293" cy="158" r="2" fill="black"/>
<path d="M476.232 140V130.032H480.236C481.244 130.032 482.033 130.261 482.602 130.718C483.171 131.166 483.456 131.805 483.456 132.636C483.456 133.215 483.297 133.705 482.98 134.106C482.672 134.498 482.243 134.778 481.692 134.946V134.834C482.317 134.955 482.807 135.231 483.162 135.66C483.517 136.089 483.694 136.631 483.694 137.284C483.694 138.161 483.405 138.833 482.826 139.3C482.247 139.767 481.431 140 480.376 140H476.232ZM477.366 139.048H480.278C481.062 139.048 481.636 138.903 482 138.614C482.373 138.325 482.56 137.872 482.56 137.256C482.56 136.649 482.373 136.192 482 135.884C481.627 135.576 481.053 135.422 480.278 135.422H477.366V139.048ZM477.366 134.456H480.054C480.81 134.456 481.375 134.307 481.748 134.008C482.131 133.709 482.322 133.271 482.322 132.692C482.322 132.123 482.135 131.698 481.762 131.418C481.389 131.129 480.819 130.984 480.054 130.984H477.366V134.456ZM485.621 140V134.932C485.621 134.605 485.612 134.279 485.593 133.952C485.584 133.616 485.556 133.285 485.509 132.958H486.587L486.741 134.694L486.587 134.652C486.718 134.036 486.998 133.574 487.427 133.266C487.866 132.949 488.356 132.79 488.897 132.79C489.019 132.79 489.131 132.799 489.233 132.818C489.345 132.827 489.448 132.846 489.541 132.874L489.513 133.91C489.299 133.835 489.051 133.798 488.771 133.798C488.286 133.798 487.894 133.905 487.595 134.12C487.306 134.335 487.091 134.61 486.951 134.946C486.821 135.273 486.755 135.618 486.755 135.982V140H485.621ZM493.259 140.098C492.634 140.098 492.083 139.953 491.607 139.664C491.14 139.365 490.776 138.945 490.515 138.404C490.263 137.853 490.137 137.209 490.137 136.472C490.137 135.735 490.268 135.091 490.529 134.54C490.79 133.989 491.154 133.56 491.621 133.252C492.097 132.944 492.643 132.79 493.259 132.79C493.903 132.79 494.449 132.949 494.897 133.266C495.345 133.583 495.648 134.036 495.807 134.624L495.639 134.736V132.958H496.759V140H495.639V138.18L495.807 138.264C495.648 138.852 495.345 139.305 494.897 139.622C494.449 139.939 493.903 140.098 493.259 140.098ZM493.483 139.16C494.174 139.16 494.706 138.927 495.079 138.46C495.452 137.984 495.639 137.312 495.639 136.444C495.639 135.576 495.448 134.909 495.065 134.442C494.692 133.975 494.164 133.742 493.483 133.742C492.792 133.742 492.251 133.985 491.859 134.47C491.476 134.946 491.285 135.613 491.285 136.472C491.285 137.331 491.476 137.993 491.859 138.46C492.251 138.927 492.792 139.16 493.483 139.16ZM498.951 140V132.958H500.085V140H498.951ZM498.839 129.976H500.225V131.264H498.839V129.976ZM502.287 140V134.932C502.287 134.605 502.278 134.279 502.259 133.952C502.25 133.616 502.222 133.285 502.175 132.958H503.253L503.379 134.414L503.239 134.526C503.435 133.957 503.762 133.527 504.219 133.238C504.677 132.939 505.204 132.79 505.801 132.79C507.491 132.79 508.335 133.719 508.335 135.576V140H507.201V135.632C507.201 134.979 507.071 134.503 506.809 134.204C506.548 133.896 506.137 133.742 505.577 133.742C504.924 133.742 504.401 133.943 504.009 134.344C503.617 134.745 503.421 135.287 503.421 135.968V140H502.287ZM512.857 140.098C511.671 140.098 510.733 139.795 510.043 139.188L510.421 138.348C510.794 138.637 511.177 138.852 511.569 138.992C511.97 139.123 512.413 139.188 512.899 139.188C513.431 139.188 513.832 139.099 514.103 138.922C514.383 138.735 514.523 138.469 514.523 138.124C514.523 137.844 514.429 137.625 514.243 137.466C514.056 137.298 513.748 137.163 513.319 137.06L512.129 136.78C511.541 136.649 511.083 136.416 510.757 136.08C510.439 135.744 510.281 135.343 510.281 134.876C510.281 134.465 510.393 134.106 510.617 133.798C510.841 133.481 511.153 133.233 511.555 133.056C511.956 132.879 512.432 132.79 512.983 132.79C513.477 132.79 513.944 132.869 514.383 133.028C514.821 133.187 515.19 133.415 515.489 133.714L515.111 134.54C514.775 134.26 514.429 134.055 514.075 133.924C513.729 133.784 513.365 133.714 512.983 133.714C512.479 133.714 512.087 133.812 511.807 134.008C511.536 134.204 511.401 134.47 511.401 134.806C511.401 135.095 511.485 135.324 511.653 135.492C511.83 135.66 512.11 135.791 512.493 135.884L513.683 136.178C514.345 136.318 514.831 136.551 515.139 136.878C515.456 137.195 515.615 137.601 515.615 138.096C515.615 138.703 515.367 139.188 514.873 139.552C514.378 139.916 513.706 140.098 512.857 140.098ZM516.36 133.854V132.958H520.882V133.854H516.36ZM520.854 138.992V139.958C520.695 140.005 520.536 140.037 520.378 140.056C520.228 140.084 520.06 140.098 519.874 140.098C519.22 140.098 518.698 139.911 518.306 139.538C517.923 139.165 517.732 138.605 517.732 137.858V131.152L518.866 130.746V137.704C518.866 138.077 518.917 138.367 519.02 138.572C519.132 138.777 519.281 138.922 519.468 139.006C519.654 139.081 519.864 139.118 520.098 139.118C520.238 139.118 520.364 139.109 520.476 139.09C520.588 139.071 520.714 139.039 520.854 138.992ZM525.16 140.098C524.488 140.098 523.9 139.949 523.396 139.65C522.902 139.351 522.514 138.931 522.234 138.39C521.964 137.839 521.828 137.191 521.828 136.444C521.828 135.707 521.964 135.063 522.234 134.512C522.514 133.961 522.902 133.537 523.396 133.238C523.9 132.939 524.488 132.79 525.16 132.79C525.832 132.79 526.416 132.939 526.91 133.238C527.414 133.537 527.802 133.961 528.072 134.512C528.352 135.063 528.492 135.707 528.492 136.444C528.492 137.191 528.352 137.839 528.072 138.39C527.802 138.931 527.414 139.351 526.91 139.65C526.416 139.949 525.832 140.098 525.16 140.098ZM525.16 139.16C525.851 139.16 526.383 138.931 526.756 138.474C527.139 138.007 527.33 137.331 527.33 136.444C527.33 135.576 527.139 134.909 526.756 134.442C526.374 133.975 525.842 133.742 525.16 133.742C524.479 133.742 523.942 133.975 523.55 134.442C523.168 134.909 522.976 135.576 522.976 136.444C522.976 137.331 523.163 138.007 523.536 138.474C523.919 138.931 524.46 139.16 525.16 139.16ZM530.26 140V134.932C530.26 134.605 530.251 134.279 530.232 133.952C530.223 133.616 530.195 133.285 530.148 132.958H531.226L531.38 134.694L531.226 134.652C531.357 134.036 531.637 133.574 532.066 133.266C532.505 132.949 532.995 132.79 533.536 132.79C533.657 132.79 533.769 132.799 533.872 132.818C533.984 132.827 534.087 132.846 534.18 132.874L534.152 133.91C533.937 133.835 533.69 133.798 533.41 133.798C532.925 133.798 532.533 133.905 532.234 134.12C531.945 134.335 531.73 134.61 531.59 134.946C531.459 135.273 531.394 135.618 531.394 135.982V140H530.26ZM535.332 140V134.932C535.332 134.605 535.323 134.279 535.304 133.952C535.295 133.616 535.267 133.285 535.22 132.958H536.298L536.424 134.414L536.284 134.512C536.452 133.961 536.742 133.537 537.152 133.238C537.572 132.939 538.067 132.79 538.636 132.79C539.318 132.79 539.845 132.958 540.218 133.294C540.601 133.63 540.844 134.143 540.946 134.834L540.61 134.652C540.76 134.083 541.058 133.63 541.506 133.294C541.964 132.958 542.51 132.79 543.144 132.79C543.919 132.79 544.502 133.023 544.894 133.49C545.286 133.947 545.482 134.643 545.482 135.576V140H544.348V135.632C544.348 134.979 544.232 134.503 543.998 134.204C543.765 133.896 543.396 133.742 542.892 133.742C542.304 133.742 541.838 133.943 541.492 134.344C541.156 134.745 540.988 135.291 540.988 135.982V140H539.854V135.632C539.854 134.979 539.733 134.503 539.49 134.204C539.257 133.896 538.888 133.742 538.384 133.742C537.787 133.742 537.316 133.943 536.97 134.344C536.634 134.745 536.466 135.291 536.466 135.982V140H535.332Z" fill="black"/>
<circle cx="465" cy="135" r="2" fill="black"/>
<path d="M476.232 163V153.032H480.208C481.235 153.032 482.033 153.279 482.602 153.774C483.181 154.269 483.47 154.95 483.47 155.818C483.47 156.677 483.181 157.358 482.602 157.862C482.023 158.366 481.225 158.618 480.208 158.618H477.38V163H476.232ZM477.38 157.666H480.11C480.847 157.666 481.403 157.507 481.776 157.19C482.149 156.863 482.336 156.406 482.336 155.818C482.336 155.23 482.149 154.777 481.776 154.46C481.403 154.143 480.847 153.984 480.11 153.984H477.38V157.666ZM485.074 163V157.932C485.074 157.605 485.065 157.279 485.046 156.952C485.037 156.616 485.009 156.285 484.962 155.958H486.04L486.194 157.694L486.04 157.652C486.171 157.036 486.451 156.574 486.88 156.266C487.319 155.949 487.809 155.79 488.35 155.79C488.472 155.79 488.584 155.799 488.686 155.818C488.798 155.827 488.901 155.846 488.994 155.874L488.966 156.91C488.752 156.835 488.504 156.798 488.224 156.798C487.739 156.798 487.347 156.905 487.048 157.12C486.759 157.335 486.544 157.61 486.404 157.946C486.274 158.273 486.208 158.618 486.208 158.982V163H485.074ZM490.147 163V155.958H491.281V163H490.147ZM490.035 152.976H491.421V154.264H490.035V152.976ZM496.395 163.098C495.723 163.098 495.135 162.949 494.631 162.65C494.136 162.351 493.749 161.931 493.469 161.39C493.198 160.839 493.063 160.191 493.063 159.444C493.063 158.707 493.198 158.063 493.469 157.512C493.749 156.961 494.136 156.537 494.631 156.238C495.135 155.939 495.723 155.79 496.395 155.79C497.067 155.79 497.65 155.939 498.145 156.238C498.649 156.537 499.036 156.961 499.307 157.512C499.587 158.063 499.727 158.707 499.727 159.444C499.727 160.191 499.587 160.839 499.307 161.39C499.036 161.931 498.649 162.351 498.145 162.65C497.65 162.949 497.067 163.098 496.395 163.098ZM496.395 162.16C497.085 162.16 497.617 161.931 497.991 161.474C498.373 161.007 498.565 160.331 498.565 159.444C498.565 158.576 498.373 157.909 497.991 157.442C497.608 156.975 497.076 156.742 496.395 156.742C495.713 156.742 495.177 156.975 494.785 157.442C494.402 157.909 494.211 158.576 494.211 159.444C494.211 160.331 494.397 161.007 494.771 161.474C495.153 161.931 495.695 162.16 496.395 162.16ZM501.494 163V157.932C501.494 157.605 501.485 157.279 501.466 156.952C501.457 156.616 501.429 156.285 501.382 155.958H502.46L502.614 157.694L502.46 157.652C502.591 157.036 502.871 156.574 503.3 156.266C503.739 155.949 504.229 155.79 504.77 155.79C504.892 155.79 505.004 155.799 505.106 155.818C505.218 155.827 505.321 155.846 505.414 155.874L505.386 156.91C505.172 156.835 504.924 156.798 504.644 156.798C504.159 156.798 503.767 156.905 503.468 157.12C503.179 157.335 502.964 157.61 502.824 157.946C502.694 158.273 502.628 158.618 502.628 158.982V163H501.494ZM506.567 163V155.958H507.701V163H506.567ZM506.455 152.976H507.841V154.264H506.455V152.976ZM508.909 156.854V155.958H513.431V156.854H508.909ZM513.403 161.992V162.958C513.244 163.005 513.085 163.037 512.927 163.056C512.777 163.084 512.609 163.098 512.423 163.098C511.769 163.098 511.247 162.911 510.855 162.538C510.472 162.165 510.281 161.605 510.281 160.858V154.152L511.415 153.746V160.704C511.415 161.077 511.466 161.367 511.569 161.572C511.681 161.777 511.83 161.922 512.017 162.006C512.203 162.081 512.413 162.118 512.647 162.118C512.787 162.118 512.913 162.109 513.025 162.09C513.137 162.071 513.263 162.039 513.403 161.992ZM514.797 163V155.958H515.931V163H514.797ZM514.685 152.976H516.071V154.264H514.685V152.976ZM517.741 163V162.216L522.557 156.392L522.739 156.854H517.895V155.958H523.537V156.784L518.749 162.58L518.595 162.104H523.691V163H517.741ZM527.917 163.098C527.292 163.098 526.741 162.953 526.265 162.664C525.798 162.365 525.434 161.945 525.173 161.404C524.921 160.853 524.795 160.209 524.795 159.472C524.795 158.735 524.926 158.091 525.187 157.54C525.448 156.989 525.812 156.56 526.279 156.252C526.755 155.944 527.301 155.79 527.917 155.79C528.561 155.79 529.107 155.949 529.555 156.266C530.003 156.583 530.306 157.036 530.465 157.624L530.297 157.736V155.958H531.417V163H530.297V161.18L530.465 161.264C530.306 161.852 530.003 162.305 529.555 162.622C529.107 162.939 528.561 163.098 527.917 163.098ZM528.141 162.16C528.832 162.16 529.364 161.927 529.737 161.46C530.11 160.984 530.297 160.312 530.297 159.444C530.297 158.576 530.106 157.909 529.723 157.442C529.35 156.975 528.822 156.742 528.141 156.742C527.45 156.742 526.909 156.985 526.517 157.47C526.134 157.946 525.943 158.613 525.943 159.472C525.943 160.331 526.134 160.993 526.517 161.46C526.909 161.927 527.45 162.16 528.141 162.16ZM532.616 156.854V155.958H537.138V156.854H532.616ZM537.11 161.992V162.958C536.951 163.005 536.792 163.037 536.634 163.056C536.484 163.084 536.316 163.098 536.13 163.098C535.476 163.098 534.954 162.911 534.562 162.538C534.179 162.165 533.988 161.605 533.988 160.858V154.152L535.122 153.746V160.704C535.122 161.077 535.173 161.367 535.276 161.572C535.388 161.777 535.537 161.922 535.724 162.006C535.91 162.081 536.12 162.118 536.354 162.118C536.494 162.118 536.62 162.109 536.732 162.09C536.844 162.071 536.97 162.039 537.11 161.992ZM538.504 163V155.958H539.638V163H538.504ZM538.392 152.976H539.778V154.264H538.392V152.976ZM544.752 163.098C544.08 163.098 543.492 162.949 542.988 162.65C542.493 162.351 542.106 161.931 541.826 161.39C541.555 160.839 541.42 160.191 541.42 159.444C541.42 158.707 541.555 158.063 541.826 157.512C542.106 156.961 542.493 156.537 542.988 156.238C543.492 155.939 544.08 155.79 544.752 155.79C545.424 155.79 546.007 155.939 546.502 156.238C547.006 156.537 547.393 156.961 547.664 157.512C547.944 158.063 548.084 158.707 548.084 159.444C548.084 160.191 547.944 160.839 547.664 161.39C547.393 161.931 547.006 162.351 546.502 162.65C546.007 162.949 545.424 163.098 544.752 163.098ZM544.752 162.16C545.443 162.16 545.975 161.931 546.348 161.474C546.731 161.007 546.922 160.331 546.922 159.444C546.922 158.576 546.731 157.909 546.348 157.442C545.965 156.975 545.433 156.742 544.752 156.742C544.071 156.742 543.534 156.975 543.142 157.442C542.759 157.909 542.568 158.576 542.568 159.444C542.568 160.331 542.755 161.007 543.128 161.474C543.511 161.931 544.052 162.16 544.752 162.16ZM549.852 163V157.932C549.852 157.605 549.842 157.279 549.824 156.952C549.814 156.616 549.786 156.285 549.74 155.958H550.818L550.944 157.414L550.804 157.526C551 156.957 551.326 156.527 551.784 156.238C552.241 155.939 552.768 155.79 553.366 155.79C555.055 155.79 555.9 156.719 555.9 158.576V163H554.766V158.632C554.766 157.979 554.635 157.503 554.374 157.204C554.112 156.896 553.702 156.742 553.142 156.742C552.488 156.742 551.966 156.943 551.574 157.344C551.182 157.745 550.986 158.287 550.986 158.968V163H549.852ZM561.832 163V153.032H562.784L566.83 162.23H566.298L570.302 153.032H571.254V163H570.19V154.544L570.624 154.6L566.956 163H566.144L562.42 154.6L562.882 154.544L562.896 163H561.832ZM576.274 163.098C575.649 163.098 575.098 162.953 574.622 162.664C574.156 162.365 573.792 161.945 573.53 161.404C573.278 160.853 573.152 160.209 573.152 159.472C573.152 158.735 573.283 158.091 573.544 157.54C573.806 156.989 574.17 156.56 574.636 156.252C575.112 155.944 575.658 155.79 576.274 155.79C576.918 155.79 577.464 155.949 577.912 156.266C578.36 156.583 578.664 157.036 578.822 157.624L578.654 157.736V155.958H579.774V163H578.654V161.18L578.822 161.264C578.664 161.852 578.36 162.305 577.912 162.622C577.464 162.939 576.918 163.098 576.274 163.098ZM576.498 162.16C577.189 162.16 577.721 161.927 578.094 161.46C578.468 160.984 578.654 160.312 578.654 159.444C578.654 158.576 578.463 157.909 578.08 157.442C577.707 156.975 577.18 156.742 576.498 156.742C575.808 156.742 575.266 156.985 574.874 157.47C574.492 157.946 574.3 158.613 574.3 159.472C574.3 160.331 574.492 160.993 574.874 161.46C575.266 161.927 575.808 162.16 576.498 162.16ZM580.973 156.854V155.958H585.495V156.854H580.973ZM585.467 161.992V162.958C585.308 163.005 585.15 163.037 584.991 163.056C584.842 163.084 584.674 163.098 584.487 163.098C583.834 163.098 583.311 162.911 582.919 162.538C582.536 162.165 582.345 161.605 582.345 160.858V154.152L583.479 153.746V160.704C583.479 161.077 583.53 161.367 583.633 161.572C583.745 161.777 583.894 161.922 584.081 162.006C584.268 162.081 584.478 162.118 584.711 162.118C584.851 162.118 584.977 162.109 585.089 162.09C585.201 162.071 585.327 162.039 585.467 161.992ZM586.862 163V157.932C586.862 157.605 586.852 157.279 586.834 156.952C586.824 156.616 586.796 156.285 586.75 155.958H587.828L587.982 157.694L587.828 157.652C587.958 157.036 588.238 156.574 588.668 156.266C589.106 155.949 589.596 155.79 590.138 155.79C590.259 155.79 590.371 155.799 590.474 155.818C590.586 155.827 590.688 155.846 590.782 155.874L590.754 156.91C590.539 156.835 590.292 156.798 590.012 156.798C589.526 156.798 589.134 156.905 588.836 157.12C588.546 157.335 588.332 157.61 588.192 157.946C588.061 158.273 587.996 158.618 587.996 158.982V163H586.862ZM591.934 163V155.958H593.068V163H591.934ZM591.822 152.976H593.208V154.264H591.822V152.976ZM600.142 163L597.916 160.228L597.258 159.374L594.5 155.958H595.872L597.916 158.548L598.602 159.374L601.5 163H600.142ZM595.718 163H594.332L597.258 159.374L597.916 158.548L599.96 155.958H601.346L598.602 159.374L597.916 160.228L595.718 163Z" fill="black"/>
<circle cx="465" cy="158" r="2" fill="black"/>
<path d="M476.232 186V176.032H480.208C481.235 176.032 482.033 176.279 482.602 176.774C483.181 177.269 483.47 177.95 483.47 178.818C483.47 179.677 483.181 180.358 482.602 180.862C482.023 181.366 481.225 181.618 480.208 181.618H477.38V186H476.232ZM477.38 180.666H480.11C480.847 180.666 481.403 180.507 481.776 180.19C482.149 179.863 482.336 179.406 482.336 178.818C482.336 178.23 482.149 177.777 481.776 177.46C481.403 177.143 480.847 176.984 480.11 176.984H477.38V180.666ZM485.074 186V180.932C485.074 180.605 485.065 180.279 485.046 179.952C485.037 179.616 485.009 179.285 484.962 178.958H486.04L486.194 180.694L486.04 180.652C486.171 180.036 486.451 179.574 486.88 179.266C487.319 178.949 487.809 178.79 488.35 178.79C488.472 178.79 488.584 178.799 488.686 178.818C488.798 178.827 488.901 178.846 488.994 178.874L488.966 179.91C488.752 179.835 488.504 179.798 488.224 179.798C487.739 179.798 487.347 179.905 487.048 180.12C486.759 180.335 486.544 180.61 486.404 180.946C486.274 181.273 486.208 181.618 486.208 181.982V186H485.074ZM492.922 186.098C492.25 186.098 491.662 185.949 491.158 185.65C490.663 185.351 490.276 184.931 489.996 184.39C489.725 183.839 489.59 183.191 489.59 182.444C489.59 181.707 489.725 181.063 489.996 180.512C490.276 179.961 490.663 179.537 491.158 179.238C491.662 178.939 492.25 178.79 492.922 178.79C493.594 178.79 494.177 178.939 494.672 179.238C495.176 179.537 495.563 179.961 495.834 180.512C496.114 181.063 496.254 181.707 496.254 182.444C496.254 183.191 496.114 183.839 495.834 184.39C495.563 184.931 495.176 185.351 494.672 185.65C494.177 185.949 493.594 186.098 492.922 186.098ZM492.922 185.16C493.613 185.16 494.145 184.931 494.518 184.474C494.901 184.007 495.092 183.331 495.092 182.444C495.092 181.576 494.901 180.909 494.518 180.442C494.135 179.975 493.603 179.742 492.922 179.742C492.241 179.742 491.704 179.975 491.312 180.442C490.929 180.909 490.738 181.576 490.738 182.444C490.738 183.331 490.925 184.007 491.298 184.474C491.681 184.931 492.222 185.16 492.922 185.16ZM504.224 186H503.104V184.11L503.272 184.264C503.113 184.852 502.81 185.305 502.362 185.622C501.914 185.939 501.368 186.098 500.724 186.098C500.108 186.098 499.562 185.949 499.086 185.65C498.619 185.342 498.255 184.913 497.994 184.362C497.732 183.802 497.602 183.153 497.602 182.416C497.602 181.679 497.728 181.039 497.98 180.498C498.241 179.957 498.605 179.537 499.072 179.238C499.548 178.939 500.098 178.79 500.724 178.79C501.368 178.79 501.914 178.953 502.362 179.28C502.81 179.597 503.113 180.045 503.272 180.624L503.09 180.764V175.696H504.224V186ZM500.948 185.16C501.629 185.16 502.156 184.927 502.53 184.46C502.912 183.984 503.104 183.312 503.104 182.444C503.104 181.585 502.917 180.923 502.544 180.456C502.17 179.98 501.638 179.742 500.948 179.742C500.257 179.742 499.716 179.975 499.324 180.442C498.941 180.909 498.75 181.567 498.75 182.416C498.75 183.284 498.941 183.961 499.324 184.446C499.716 184.922 500.257 185.16 500.948 185.16ZM508.908 186.098C508.068 186.098 507.434 185.865 507.004 185.398C506.584 184.931 506.374 184.241 506.374 183.326V178.958H507.508V183.298C507.508 183.933 507.639 184.399 507.9 184.698C508.162 184.997 508.558 185.146 509.09 185.146C509.716 185.146 510.22 184.945 510.602 184.544C510.985 184.143 511.176 183.606 511.176 182.934V178.958H512.31V186H511.204V184.474L511.372 184.39C511.186 184.95 510.868 185.375 510.42 185.664C509.982 185.953 509.478 186.098 508.908 186.098ZM517.45 186.098C516.76 186.098 516.162 185.949 515.658 185.65C515.154 185.351 514.762 184.931 514.482 184.39C514.212 183.849 514.076 183.209 514.076 182.472C514.076 181.744 514.216 181.105 514.496 180.554C514.776 179.994 515.173 179.56 515.686 179.252C516.2 178.944 516.806 178.79 517.506 178.79C517.982 178.79 518.44 178.874 518.878 179.042C519.326 179.201 519.695 179.425 519.984 179.714L519.606 180.554C519.261 180.283 518.92 180.083 518.584 179.952C518.258 179.812 517.917 179.742 517.562 179.742C516.853 179.742 516.288 179.98 515.868 180.456C515.458 180.932 515.252 181.604 515.252 182.472C515.252 183.331 515.458 183.993 515.868 184.46C516.279 184.927 516.844 185.16 517.562 185.16C517.908 185.16 518.248 185.095 518.584 184.964C518.92 184.824 519.261 184.619 519.606 184.348L519.984 185.188C519.686 185.468 519.308 185.692 518.85 185.86C518.402 186.019 517.936 186.098 517.45 186.098ZM520.448 179.854V178.958H524.97V179.854H520.448ZM524.942 184.992V185.958C524.783 186.005 524.624 186.037 524.466 186.056C524.316 186.084 524.148 186.098 523.962 186.098C523.308 186.098 522.786 185.911 522.394 185.538C522.011 185.165 521.82 184.605 521.82 183.858V177.152L522.954 176.746V183.704C522.954 184.077 523.005 184.367 523.108 184.572C523.22 184.777 523.369 184.922 523.556 185.006C523.742 185.081 523.952 185.118 524.186 185.118C524.326 185.118 524.452 185.109 524.564 185.09C524.676 185.071 524.802 185.039 524.942 184.992ZM533.291 186.112C532.777 186.112 532.297 186.07 531.849 185.986C531.401 185.893 530.985 185.753 530.603 185.566C530.22 185.37 529.875 185.132 529.567 184.852L530.001 183.97C530.505 184.39 531.009 184.689 531.513 184.866C532.026 185.043 532.623 185.132 533.305 185.132C534.098 185.132 534.714 184.978 535.153 184.67C535.591 184.353 535.811 183.909 535.811 183.34C535.811 182.995 535.699 182.719 535.475 182.514C535.26 182.299 534.961 182.131 534.579 182.01C534.205 181.879 533.781 181.758 533.305 181.646C532.829 181.543 532.376 181.427 531.947 181.296C531.517 181.156 531.135 180.983 530.799 180.778C530.472 180.573 530.215 180.311 530.029 179.994C529.842 179.677 529.749 179.28 529.749 178.804C529.749 178.235 529.898 177.735 530.197 177.306C530.495 176.867 530.915 176.527 531.457 176.284C531.998 176.041 532.637 175.92 533.375 175.92C533.832 175.92 534.271 175.971 534.691 176.074C535.111 176.167 535.498 176.307 535.853 176.494C536.217 176.681 536.539 176.909 536.819 177.18L536.371 178.062C535.913 177.661 535.442 177.367 534.957 177.18C534.471 176.993 533.944 176.9 533.375 176.9C532.6 176.9 531.993 177.063 531.555 177.39C531.116 177.717 530.897 178.174 530.897 178.762C530.897 179.126 530.995 179.42 531.191 179.644C531.387 179.868 531.662 180.05 532.017 180.19C532.371 180.321 532.777 180.442 533.235 180.554C533.72 180.666 534.187 180.787 534.635 180.918C535.083 181.049 535.479 181.212 535.825 181.408C536.179 181.595 536.459 181.842 536.665 182.15C536.87 182.449 536.973 182.831 536.973 183.298C536.973 183.867 536.823 184.362 536.525 184.782C536.226 185.202 535.801 185.529 535.251 185.762C534.7 185.995 534.047 186.112 533.291 186.112ZM541.201 186.098C540.361 186.098 539.727 185.865 539.297 185.398C538.877 184.931 538.667 184.241 538.667 183.326V178.958H539.801V183.298C539.801 183.933 539.932 184.399 540.193 184.698C540.455 184.997 540.851 185.146 541.383 185.146C542.009 185.146 542.513 184.945 542.895 184.544C543.278 184.143 543.469 183.606 543.469 182.934V178.958H544.603V186H543.497V184.474L543.665 184.39C543.479 184.95 543.161 185.375 542.713 185.664C542.275 185.953 541.771 186.098 541.201 186.098ZM545.795 179.854V178.958H550.317V179.854H545.795ZM550.289 184.992V185.958C550.131 186.005 549.972 186.037 549.813 186.056C549.664 186.084 549.496 186.098 549.309 186.098C548.656 186.098 548.133 185.911 547.741 185.538C547.359 185.165 547.167 184.605 547.167 183.858V177.152L548.301 176.746V183.704C548.301 184.077 548.353 184.367 548.455 184.572C548.567 184.777 548.717 184.922 548.903 185.006C549.09 185.081 549.3 185.118 549.533 185.118C549.673 185.118 549.799 185.109 549.911 185.09C550.023 185.071 550.149 185.039 550.289 184.992ZM557.452 185.16C557.144 185.449 556.747 185.678 556.262 185.846C555.786 186.014 555.296 186.098 554.792 186.098C554.064 186.098 553.434 185.953 552.902 185.664C552.379 185.375 551.973 184.959 551.684 184.418C551.404 183.867 551.264 183.214 551.264 182.458C551.264 181.73 551.404 181.091 551.684 180.54C551.964 179.989 552.351 179.56 552.846 179.252C553.35 178.944 553.928 178.79 554.582 178.79C555.207 178.79 555.744 178.93 556.192 179.21C556.64 179.481 556.98 179.873 557.214 180.386C557.456 180.899 557.578 181.515 557.578 182.234V182.444H552.258V181.702H556.934L556.57 182.22C556.588 181.399 556.425 180.769 556.08 180.33C555.744 179.891 555.249 179.672 554.596 179.672C553.914 179.672 553.378 179.915 552.986 180.4C552.603 180.876 552.412 181.539 552.412 182.388C552.412 183.303 552.612 183.993 553.014 184.46C553.424 184.927 554.022 185.16 554.806 185.16C555.216 185.16 555.608 185.095 555.982 184.964C556.364 184.824 556.728 184.614 557.074 184.334L557.452 185.16ZM559.299 186V180.932C559.299 180.605 559.29 180.279 559.271 179.952C559.262 179.616 559.234 179.285 559.187 178.958H560.265L560.391 180.414L560.251 180.512C560.419 179.961 560.708 179.537 561.119 179.238C561.539 178.939 562.034 178.79 562.603 178.79C563.284 178.79 563.812 178.958 564.185 179.294C564.568 179.63 564.81 180.143 564.913 180.834L564.577 180.652C564.726 180.083 565.025 179.63 565.473 179.294C565.93 178.958 566.476 178.79 567.111 178.79C567.886 178.79 568.469 179.023 568.861 179.49C569.253 179.947 569.449 180.643 569.449 181.576V186H568.315V181.632C568.315 180.979 568.198 180.503 567.965 180.204C567.732 179.896 567.363 179.742 566.859 179.742C566.271 179.742 565.804 179.943 565.459 180.344C565.123 180.745 564.955 181.291 564.955 181.982V186H563.821V181.632C563.821 180.979 563.7 180.503 563.457 180.204C563.224 179.896 562.855 179.742 562.351 179.742C561.754 179.742 561.282 179.943 560.937 180.344C560.601 180.745 560.433 181.291 560.433 181.982V186H559.299ZM574.306 186.098C573.68 186.098 573.13 185.953 572.654 185.664C572.187 185.365 571.823 184.945 571.562 184.404C571.31 183.853 571.184 183.209 571.184 182.472C571.184 181.735 571.314 181.091 571.576 180.54C571.837 179.989 572.201 179.56 572.668 179.252C573.144 178.944 573.69 178.79 574.306 178.79C574.95 178.79 575.496 178.949 575.944 179.266C576.392 179.583 576.695 180.036 576.854 180.624L576.686 180.736V178.958H577.806V186H576.686V184.18L576.854 184.264C576.695 184.852 576.392 185.305 575.944 185.622C575.496 185.939 574.95 186.098 574.306 186.098ZM574.53 185.16C575.22 185.16 575.752 184.927 576.126 184.46C576.499 183.984 576.686 183.312 576.686 182.444C576.686 181.576 576.494 180.909 576.112 180.442C575.738 179.975 575.211 179.742 574.53 179.742C573.839 179.742 573.298 179.985 572.906 180.47C572.523 180.946 572.332 181.613 572.332 182.472C572.332 183.331 572.523 183.993 572.906 184.46C573.298 184.927 573.839 185.16 574.53 185.16ZM579.998 189.024V180.932C579.998 180.605 579.989 180.279 579.97 179.952C579.961 179.616 579.933 179.285 579.886 178.958H580.964L581.09 180.414L580.978 180.624C581.137 180.036 581.44 179.583 581.888 179.266C582.336 178.949 582.878 178.79 583.512 178.79C584.128 178.79 584.67 178.944 585.136 179.252C585.612 179.56 585.981 179.989 586.242 180.54C586.513 181.091 586.648 181.735 586.648 182.472C586.648 183.209 586.513 183.853 586.242 184.404C585.981 184.945 585.617 185.365 585.15 185.664C584.684 185.953 584.138 186.098 583.512 186.098C582.878 186.098 582.336 185.939 581.888 185.622C581.44 185.305 581.137 184.852 580.978 184.264L581.132 184.124V189.024H579.998ZM583.302 185.16C583.984 185.16 584.516 184.927 584.898 184.46C585.281 183.993 585.472 183.331 585.472 182.472C585.472 181.613 585.281 180.946 584.898 180.47C584.516 179.985 583.984 179.742 583.302 179.742C582.602 179.742 582.066 179.975 581.692 180.442C581.319 180.909 581.132 181.576 581.132 182.444C581.132 183.312 581.319 183.984 581.692 184.46C582.066 184.927 582.602 185.16 583.302 185.16Z" fill="black"/>
<circle cx="465" cy="181" r="2" fill="black"/>
<path d="M666.962 140L663.462 130.032H664.638L667.69 139.02H667.242L670.364 130.032L671.246 130.046L674.312 139.02H673.878L676.958 130.032H678.092L674.606 140H673.626L670.63 131.404H670.938L667.928 140H666.962ZM679.664 140V132.958H680.798V140H679.664ZM679.552 129.976H680.938V131.264H679.552V129.976ZM683 140V134.932C683 134.605 682.991 134.279 682.972 133.952C682.963 133.616 682.935 133.285 682.888 132.958H683.966L684.12 134.694L683.966 134.652C684.097 134.036 684.377 133.574 684.806 133.266C685.245 132.949 685.735 132.79 686.276 132.79C686.398 132.79 686.51 132.799 686.612 132.818C686.724 132.827 686.827 132.846 686.92 132.874L686.892 133.91C686.678 133.835 686.43 133.798 686.15 133.798C685.665 133.798 685.273 133.905 684.974 134.12C684.685 134.335 684.47 134.61 684.33 134.946C684.2 135.273 684.134 135.618 684.134 135.982V140H683ZM693.704 139.16C693.396 139.449 692.999 139.678 692.514 139.846C692.038 140.014 691.548 140.098 691.044 140.098C690.316 140.098 689.686 139.953 689.154 139.664C688.631 139.375 688.225 138.959 687.936 138.418C687.656 137.867 687.516 137.214 687.516 136.458C687.516 135.73 687.656 135.091 687.936 134.54C688.216 133.989 688.603 133.56 689.098 133.252C689.602 132.944 690.18 132.79 690.834 132.79C691.459 132.79 691.996 132.93 692.444 133.21C692.892 133.481 693.232 133.873 693.466 134.386C693.708 134.899 693.83 135.515 693.83 136.234V136.444H688.51V135.702H693.186L692.822 136.22C692.84 135.399 692.677 134.769 692.332 134.33C691.996 133.891 691.501 133.672 690.848 133.672C690.166 133.672 689.63 133.915 689.238 134.4C688.855 134.876 688.664 135.539 688.664 136.388C688.664 137.303 688.864 137.993 689.266 138.46C689.676 138.927 690.274 139.16 691.058 139.16C691.468 139.16 691.86 139.095 692.234 138.964C692.616 138.824 692.98 138.614 693.326 138.334L693.704 139.16ZM694.543 133.854V132.958H698.771V133.854H694.543ZM698.967 130.732C698.706 130.657 698.463 130.62 698.239 130.62C698.015 130.62 697.81 130.662 697.623 130.746C697.446 130.821 697.306 130.961 697.203 131.166C697.101 131.371 697.049 131.656 697.049 132.02V140H695.915V131.88C695.915 131.124 696.102 130.564 696.475 130.2C696.849 129.827 697.362 129.64 698.015 129.64C698.174 129.64 698.333 129.649 698.491 129.668C698.65 129.687 698.809 129.719 698.967 129.766V130.732ZM700.254 140V134.932C700.254 134.605 700.245 134.279 700.226 133.952C700.217 133.616 700.189 133.285 700.142 132.958H701.22L701.374 134.694L701.22 134.652C701.351 134.036 701.631 133.574 702.06 133.266C702.499 132.949 702.989 132.79 703.53 132.79C703.651 132.79 703.763 132.799 703.866 132.818C703.978 132.827 704.081 132.846 704.174 132.874L704.146 133.91C703.931 133.835 703.684 133.798 703.404 133.798C702.919 133.798 702.527 133.905 702.228 134.12C701.939 134.335 701.724 134.61 701.584 134.946C701.453 135.273 701.388 135.618 701.388 135.982V140H700.254ZM707.892 140.098C707.266 140.098 706.716 139.953 706.24 139.664C705.773 139.365 705.409 138.945 705.148 138.404C704.896 137.853 704.77 137.209 704.77 136.472C704.77 135.735 704.9 135.091 705.162 134.54C705.423 133.989 705.787 133.56 706.254 133.252C706.73 132.944 707.276 132.79 707.892 132.79C708.536 132.79 709.082 132.949 709.53 133.266C709.978 133.583 710.281 134.036 710.44 134.624L710.272 134.736V132.958H711.392V140H710.272V138.18L710.44 138.264C710.281 138.852 709.978 139.305 709.53 139.622C709.082 139.939 708.536 140.098 707.892 140.098ZM708.116 139.16C708.806 139.16 709.338 138.927 709.712 138.46C710.085 137.984 710.272 137.312 710.272 136.444C710.272 135.576 710.08 134.909 709.698 134.442C709.324 133.975 708.797 133.742 708.116 133.742C707.425 133.742 706.884 133.985 706.492 134.47C706.109 134.946 705.918 135.613 705.918 136.472C705.918 137.331 706.109 137.993 706.492 138.46C706.884 138.927 707.425 139.16 708.116 139.16ZM713.584 140V134.932C713.584 134.605 713.575 134.279 713.556 133.952C713.547 133.616 713.519 133.285 713.472 132.958H714.55L714.676 134.414L714.536 134.512C714.704 133.961 714.994 133.537 715.404 133.238C715.824 132.939 716.319 132.79 716.888 132.79C717.57 132.79 718.097 132.958 718.47 133.294C718.853 133.63 719.096 134.143 719.198 134.834L718.862 134.652C719.012 134.083 719.31 133.63 719.758 133.294C720.216 132.958 720.762 132.79 721.396 132.79C722.171 132.79 722.754 133.023 723.146 133.49C723.538 133.947 723.734 134.643 723.734 135.576V140H722.6V135.632C722.6 134.979 722.484 134.503 722.25 134.204C722.017 133.896 721.648 133.742 721.144 133.742C720.556 133.742 720.09 133.943 719.744 134.344C719.408 134.745 719.24 135.291 719.24 135.982V140H718.106V135.632C718.106 134.979 717.985 134.503 717.742 134.204C717.509 133.896 717.14 133.742 716.636 133.742C716.039 133.742 715.568 133.943 715.222 134.344C714.886 134.745 714.718 135.291 714.718 135.982V140H713.584ZM725.889 140V132.958H727.023V140H725.889ZM725.777 129.976H727.163V131.264H725.777V129.976ZM729.225 140V134.932C729.225 134.605 729.215 134.279 729.197 133.952C729.187 133.616 729.159 133.285 729.113 132.958H730.191L730.317 134.414L730.177 134.526C730.373 133.957 730.699 133.527 731.157 133.238C731.614 132.939 732.141 132.79 732.739 132.79C734.428 132.79 735.273 133.719 735.273 135.576V140H734.139V135.632C734.139 134.979 734.008 134.503 733.747 134.204C733.485 133.896 733.075 133.742 732.515 133.742C731.861 133.742 731.339 133.943 730.947 134.344C730.555 134.745 730.359 135.287 730.359 135.968V140H729.225ZM740.508 143.122C739.444 143.122 738.52 142.879 737.736 142.394L737.932 141.47C738.371 141.722 738.786 141.904 739.178 142.016C739.57 142.128 740.014 142.184 740.508 142.184C741.18 142.184 741.689 142.002 742.034 141.638C742.389 141.283 742.566 140.751 742.566 140.042V138.138L742.72 137.956C742.608 138.329 742.431 138.656 742.188 138.936C741.955 139.207 741.666 139.417 741.32 139.566C740.975 139.715 740.583 139.79 740.144 139.79C739.519 139.79 738.968 139.645 738.492 139.356C738.026 139.057 737.657 138.647 737.386 138.124C737.125 137.601 736.994 136.99 736.994 136.29C736.994 135.59 737.125 134.979 737.386 134.456C737.657 133.933 738.026 133.527 738.492 133.238C738.968 132.939 739.519 132.79 740.144 132.79C740.798 132.79 741.348 132.953 741.796 133.28C742.254 133.597 742.562 134.045 742.72 134.624L742.552 134.47V132.958H743.686V139.944C743.686 140.999 743.416 141.792 742.874 142.324C742.342 142.856 741.554 143.122 740.508 143.122ZM740.368 138.838C741.05 138.838 741.582 138.614 741.964 138.166C742.356 137.709 742.552 137.083 742.552 136.29C742.552 135.497 742.356 134.876 741.964 134.428C741.582 133.971 741.05 133.742 740.368 133.742C739.678 133.742 739.132 133.971 738.73 134.428C738.338 134.876 738.142 135.497 738.142 136.29C738.142 137.093 738.338 137.718 738.73 138.166C739.132 138.614 739.678 138.838 740.368 138.838Z" fill="black"/>
<circle cx="653" cy="135" r="2" fill="black"/>
<path d="M664.442 163H663.252L667.634 153.032H668.642L673.024 163H671.848L667.942 153.872H668.362L664.442 163ZM665.114 160.438L665.52 159.486H670.756L671.162 160.438H665.114ZM680.575 163H679.455V161.11L679.623 161.264C679.465 161.852 679.161 162.305 678.713 162.622C678.265 162.939 677.719 163.098 677.075 163.098C676.459 163.098 675.913 162.949 675.437 162.65C674.971 162.342 674.607 161.913 674.345 161.362C674.084 160.802 673.953 160.153 673.953 159.416C673.953 158.679 674.079 158.039 674.331 157.498C674.593 156.957 674.957 156.537 675.423 156.238C675.899 155.939 676.45 155.79 677.075 155.79C677.719 155.79 678.265 155.953 678.713 156.28C679.161 156.597 679.465 157.045 679.623 157.624L679.441 157.764V152.696H680.575V163ZM677.299 162.16C677.981 162.16 678.508 161.927 678.881 161.46C679.264 160.984 679.455 160.312 679.455 159.444C679.455 158.585 679.269 157.923 678.895 157.456C678.522 156.98 677.99 156.742 677.299 156.742C676.609 156.742 676.067 156.975 675.675 157.442C675.293 157.909 675.101 158.567 675.101 159.416C675.101 160.284 675.293 160.961 675.675 161.446C676.067 161.922 676.609 162.16 677.299 162.16ZM685.68 163.098C685.008 163.098 684.42 162.949 683.916 162.65C683.421 162.351 683.034 161.931 682.754 161.39C682.483 160.839 682.348 160.191 682.348 159.444C682.348 158.707 682.483 158.063 682.754 157.512C683.034 156.961 683.421 156.537 683.916 156.238C684.42 155.939 685.008 155.79 685.68 155.79C686.352 155.79 686.935 155.939 687.43 156.238C687.934 156.537 688.321 156.961 688.592 157.512C688.872 158.063 689.012 158.707 689.012 159.444C689.012 160.191 688.872 160.839 688.592 161.39C688.321 161.931 687.934 162.351 687.43 162.65C686.935 162.949 686.352 163.098 685.68 163.098ZM685.68 162.16C686.37 162.16 686.902 161.931 687.276 161.474C687.658 161.007 687.85 160.331 687.85 159.444C687.85 158.576 687.658 157.909 687.276 157.442C686.893 156.975 686.361 156.742 685.68 156.742C684.998 156.742 684.462 156.975 684.07 157.442C683.687 157.909 683.496 158.576 683.496 159.444C683.496 160.331 683.682 161.007 684.056 161.474C684.438 161.931 684.98 162.16 685.68 162.16ZM690.78 163V152.696H691.914V157.764L691.76 157.624C691.918 157.045 692.222 156.597 692.67 156.28C693.118 155.953 693.659 155.79 694.294 155.79C694.919 155.79 695.465 155.939 695.932 156.238C696.398 156.537 696.762 156.957 697.024 157.498C697.294 158.039 697.43 158.679 697.43 159.416C697.43 160.153 697.294 160.802 697.024 161.362C696.762 161.913 696.394 162.342 695.918 162.65C695.451 162.949 694.91 163.098 694.294 163.098C693.659 163.098 693.118 162.939 692.67 162.622C692.222 162.305 691.918 161.852 691.76 161.264L691.914 161.11V163H690.78ZM694.084 162.16C694.765 162.16 695.297 161.922 695.68 161.446C696.062 160.961 696.254 160.284 696.254 159.416C696.254 158.567 696.062 157.909 695.68 157.442C695.297 156.975 694.765 156.742 694.084 156.742C693.384 156.742 692.847 156.98 692.474 157.456C692.1 157.923 691.914 158.585 691.914 159.444C691.914 160.312 692.1 160.984 692.474 161.46C692.847 161.927 693.384 162.16 694.084 162.16ZM704.942 162.16C704.634 162.449 704.237 162.678 703.752 162.846C703.276 163.014 702.786 163.098 702.282 163.098C701.554 163.098 700.924 162.953 700.392 162.664C699.869 162.375 699.463 161.959 699.174 161.418C698.894 160.867 698.754 160.214 698.754 159.458C698.754 158.73 698.894 158.091 699.174 157.54C699.454 156.989 699.841 156.56 700.336 156.252C700.84 155.944 701.419 155.79 702.072 155.79C702.697 155.79 703.234 155.93 703.682 156.21C704.13 156.481 704.471 156.873 704.704 157.386C704.947 157.899 705.068 158.515 705.068 159.234V159.444H699.748V158.702H704.424L704.06 159.22C704.079 158.399 703.915 157.769 703.57 157.33C703.234 156.891 702.739 156.672 702.086 156.672C701.405 156.672 700.868 156.915 700.476 157.4C700.093 157.876 699.902 158.539 699.902 159.388C699.902 160.303 700.103 160.993 700.504 161.46C700.915 161.927 701.512 162.16 702.296 162.16C702.707 162.16 703.099 162.095 703.472 161.964C703.855 161.824 704.219 161.614 704.564 161.334L704.942 162.16ZM707.181 163H705.809L709.603 157.89L710.275 157.036L713.187 153.032H714.545L710.919 157.904L710.261 158.772L707.181 163ZM713.355 163L710.261 158.772L709.603 157.89L705.991 153.032H707.363L710.275 157.036L710.919 157.904L714.713 163H713.355ZM716.062 163V153.032H719.408C720.472 153.032 721.377 153.228 722.124 153.62C722.871 154.003 723.44 154.567 723.832 155.314C724.224 156.051 724.42 156.947 724.42 158.002C724.42 159.066 724.219 159.971 723.818 160.718C723.426 161.455 722.857 162.02 722.11 162.412C721.363 162.804 720.463 163 719.408 163H716.062ZM717.21 162.02H719.338C720.626 162.02 721.592 161.684 722.236 161.012C722.889 160.34 723.216 159.337 723.216 158.002C723.216 155.342 721.923 154.012 719.338 154.012H717.21V162.02Z" fill="black"/>
<circle cx="653" cy="158" r="2" fill="black"/>
<path d="M118.404 163.112C117.471 163.112 116.663 162.907 115.982 162.496C115.31 162.085 114.787 161.497 114.414 160.732C114.05 159.967 113.868 159.061 113.868 158.016C113.868 156.961 114.05 156.056 114.414 155.3C114.778 154.535 115.296 153.947 115.968 153.536C116.649 153.125 117.461 152.92 118.404 152.92C119.337 152.92 120.145 153.125 120.826 153.536C121.507 153.947 122.03 154.535 122.394 155.3C122.758 156.056 122.94 156.957 122.94 158.002C122.94 159.057 122.753 159.967 122.38 160.732C122.016 161.497 121.493 162.085 120.812 162.496C120.14 162.907 119.337 163.112 118.404 163.112ZM118.404 162.132C119.459 162.132 120.28 161.777 120.868 161.068C121.456 160.349 121.75 159.327 121.75 158.002C121.75 156.677 121.456 155.664 120.868 154.964C120.28 154.255 119.459 153.9 118.404 153.9C117.349 153.9 116.523 154.255 115.926 154.964C115.338 155.673 115.044 156.686 115.044 158.002C115.044 159.318 115.338 160.335 115.926 161.054C116.523 161.773 117.349 162.132 118.404 162.132ZM124.906 163V157.932C124.906 157.605 124.897 157.279 124.878 156.952C124.869 156.616 124.841 156.285 124.794 155.958H125.872L125.998 157.414L125.858 157.526C126.054 156.957 126.381 156.527 126.838 156.238C127.296 155.939 127.823 155.79 128.42 155.79C130.11 155.79 130.954 156.719 130.954 158.576V163H129.82V158.632C129.82 157.979 129.69 157.503 129.428 157.204C129.167 156.896 128.756 156.742 128.196 156.742C127.543 156.742 127.02 156.943 126.628 157.344C126.236 157.745 126.04 158.287 126.04 158.968V163H124.906ZM133.096 163V152.696H134.23V163H133.096ZM136.432 163V155.958H137.566V163H136.432ZM136.32 152.976H137.706V154.264H136.32V152.976ZM139.768 163V157.932C139.768 157.605 139.758 157.279 139.74 156.952C139.73 156.616 139.702 156.285 139.656 155.958H140.734L140.86 157.414L140.72 157.526C140.916 156.957 141.242 156.527 141.7 156.238C142.157 155.939 142.684 155.79 143.282 155.79C144.971 155.79 145.816 156.719 145.816 158.576V163H144.682V158.632C144.682 157.979 144.551 157.503 144.29 157.204C144.028 156.896 143.618 156.742 143.058 156.742C142.404 156.742 141.882 156.943 141.49 157.344C141.098 157.745 140.902 158.287 140.902 158.968V163H139.768ZM153.725 162.16C153.417 162.449 153.021 162.678 152.535 162.846C152.059 163.014 151.569 163.098 151.065 163.098C150.337 163.098 149.707 162.953 149.175 162.664C148.653 162.375 148.247 161.959 147.957 161.418C147.677 160.867 147.537 160.214 147.537 159.458C147.537 158.73 147.677 158.091 147.957 157.54C148.237 156.989 148.625 156.56 149.119 156.252C149.623 155.944 150.202 155.79 150.855 155.79C151.481 155.79 152.017 155.93 152.465 156.21C152.913 156.481 153.254 156.873 153.487 157.386C153.73 157.899 153.851 158.515 153.851 159.234V159.444H148.531V158.702H153.207L152.843 159.22C152.862 158.399 152.699 157.769 152.353 157.33C152.017 156.891 151.523 156.672 150.869 156.672C150.188 156.672 149.651 156.915 149.259 157.4C148.877 157.876 148.685 158.539 148.685 159.388C148.685 160.303 148.886 160.993 149.287 161.46C149.698 161.927 150.295 162.16 151.079 162.16C151.49 162.16 151.882 162.095 152.255 161.964C152.638 161.824 153.002 161.614 153.347 161.334L153.725 162.16ZM159.363 163V153.032H163.325C164.398 153.032 165.22 153.27 165.789 153.746C166.368 154.222 166.657 154.908 166.657 155.804C166.657 156.663 166.363 157.339 165.775 157.834C165.196 158.319 164.38 158.562 163.325 158.562L164.361 158.366C164.725 158.366 165.038 158.469 165.299 158.674C165.56 158.87 165.77 159.187 165.929 159.626L167.189 163H165.971L164.739 159.682C164.58 159.262 164.361 158.987 164.081 158.856C163.81 158.716 163.446 158.646 162.989 158.646H160.497V163H159.363ZM160.497 157.694H163.227C164.002 157.694 164.576 157.535 164.949 157.218C165.332 156.901 165.523 156.434 165.523 155.818C165.523 155.202 165.336 154.745 164.963 154.446C164.59 154.138 164.011 153.984 163.227 153.984H160.497V157.694ZM174.698 162.16C174.39 162.449 173.993 162.678 173.508 162.846C173.032 163.014 172.542 163.098 172.038 163.098C171.31 163.098 170.68 162.953 170.148 162.664C169.625 162.375 169.219 161.959 168.93 161.418C168.65 160.867 168.51 160.214 168.51 159.458C168.51 158.73 168.65 158.091 168.93 157.54C169.21 156.989 169.597 156.56 170.092 156.252C170.596 155.944 171.175 155.79 171.828 155.79C172.453 155.79 172.99 155.93 173.438 156.21C173.886 156.481 174.227 156.873 174.46 157.386C174.703 157.899 174.824 158.515 174.824 159.234V159.444H169.504V158.702H174.18L173.816 159.22C173.835 158.399 173.671 157.769 173.326 157.33C172.99 156.891 172.495 156.672 171.842 156.672C171.161 156.672 170.624 156.915 170.232 157.4C169.849 157.876 169.658 158.539 169.658 159.388C169.658 160.303 169.859 160.993 170.26 161.46C170.671 161.927 171.268 162.16 172.052 162.16C172.463 162.16 172.855 162.095 173.228 161.964C173.611 161.824 173.975 161.614 174.32 161.334L174.698 162.16ZM178.925 163.098C177.74 163.098 176.802 162.795 176.111 162.188L176.489 161.348C176.862 161.637 177.245 161.852 177.637 161.992C178.038 162.123 178.482 162.188 178.967 162.188C179.499 162.188 179.9 162.099 180.171 161.922C180.451 161.735 180.591 161.469 180.591 161.124C180.591 160.844 180.498 160.625 180.311 160.466C180.124 160.298 179.816 160.163 179.387 160.06L178.197 159.78C177.609 159.649 177.152 159.416 176.825 159.08C176.508 158.744 176.349 158.343 176.349 157.876C176.349 157.465 176.461 157.106 176.685 156.798C176.909 156.481 177.222 156.233 177.623 156.056C178.024 155.879 178.5 155.79 179.051 155.79C179.546 155.79 180.012 155.869 180.451 156.028C180.89 156.187 181.258 156.415 181.557 156.714L181.179 157.54C180.843 157.26 180.498 157.055 180.143 156.924C179.798 156.784 179.434 156.714 179.051 156.714C178.547 156.714 178.155 156.812 177.875 157.008C177.604 157.204 177.469 157.47 177.469 157.806C177.469 158.095 177.553 158.324 177.721 158.492C177.898 158.66 178.178 158.791 178.561 158.884L179.751 159.178C180.414 159.318 180.899 159.551 181.207 159.878C181.524 160.195 181.683 160.601 181.683 161.096C181.683 161.703 181.436 162.188 180.941 162.552C180.446 162.916 179.774 163.098 178.925 163.098ZM189.258 162.16C188.95 162.449 188.554 162.678 188.068 162.846C187.592 163.014 187.102 163.098 186.598 163.098C185.87 163.098 185.24 162.953 184.708 162.664C184.186 162.375 183.78 161.959 183.49 161.418C183.21 160.867 183.07 160.214 183.07 159.458C183.07 158.73 183.21 158.091 183.49 157.54C183.77 156.989 184.158 156.56 184.652 156.252C185.156 155.944 185.735 155.79 186.388 155.79C187.014 155.79 187.55 155.93 187.998 156.21C188.446 156.481 188.787 156.873 189.02 157.386C189.263 157.899 189.384 158.515 189.384 159.234V159.444H184.064V158.702H188.74L188.376 159.22C188.395 158.399 188.232 157.769 187.886 157.33C187.55 156.891 187.056 156.672 186.402 156.672C185.721 156.672 185.184 156.915 184.792 157.4C184.41 157.876 184.218 158.539 184.218 159.388C184.218 160.303 184.419 160.993 184.82 161.46C185.231 161.927 185.828 162.16 186.612 162.16C187.023 162.16 187.415 162.095 187.788 161.964C188.171 161.824 188.535 161.614 188.88 161.334L189.258 162.16ZM193.808 163.098C193.182 163.098 192.632 162.953 192.156 162.664C191.689 162.365 191.325 161.945 191.064 161.404C190.812 160.853 190.686 160.209 190.686 159.472C190.686 158.735 190.816 158.091 191.078 157.54C191.339 156.989 191.703 156.56 192.17 156.252C192.646 155.944 193.192 155.79 193.808 155.79C194.452 155.79 194.998 155.949 195.446 156.266C195.894 156.583 196.197 157.036 196.356 157.624L196.188 157.736V155.958H197.308V163H196.188V161.18L196.356 161.264C196.197 161.852 195.894 162.305 195.446 162.622C194.998 162.939 194.452 163.098 193.808 163.098ZM194.032 162.16C194.722 162.16 195.254 161.927 195.628 161.46C196.001 160.984 196.188 160.312 196.188 159.444C196.188 158.576 195.996 157.909 195.614 157.442C195.24 156.975 194.713 156.742 194.032 156.742C193.341 156.742 192.8 156.985 192.408 157.47C192.025 157.946 191.834 158.613 191.834 159.472C191.834 160.331 192.025 160.993 192.408 161.46C192.8 161.927 193.341 162.16 194.032 162.16ZM199.5 163V157.932C199.5 157.605 199.491 157.279 199.472 156.952C199.463 156.616 199.435 156.285 199.388 155.958H200.466L200.62 157.694L200.466 157.652C200.597 157.036 200.877 156.574 201.306 156.266C201.745 155.949 202.235 155.79 202.776 155.79C202.898 155.79 203.01 155.799 203.112 155.818C203.224 155.827 203.327 155.846 203.42 155.874L203.392 156.91C203.178 156.835 202.93 156.798 202.65 156.798C202.165 156.798 201.773 156.905 201.474 157.12C201.185 157.335 200.97 157.61 200.83 157.946C200.7 158.273 200.634 158.618 200.634 158.982V163H199.5ZM207.39 163.098C206.699 163.098 206.102 162.949 205.598 162.65C205.094 162.351 204.702 161.931 204.422 161.39C204.151 160.849 204.016 160.209 204.016 159.472C204.016 158.744 204.156 158.105 204.436 157.554C204.716 156.994 205.112 156.56 205.626 156.252C206.139 155.944 206.746 155.79 207.446 155.79C207.922 155.79 208.379 155.874 208.818 156.042C209.266 156.201 209.634 156.425 209.924 156.714L209.546 157.554C209.2 157.283 208.86 157.083 208.524 156.952C208.197 156.812 207.856 156.742 207.502 156.742C206.792 156.742 206.228 156.98 205.808 157.456C205.397 157.932 205.192 158.604 205.192 159.472C205.192 160.331 205.397 160.993 205.808 161.46C206.218 161.927 206.783 162.16 207.502 162.16C207.847 162.16 208.188 162.095 208.524 161.964C208.86 161.824 209.2 161.619 209.546 161.348L209.924 162.188C209.625 162.468 209.247 162.692 208.79 162.86C208.342 163.019 207.875 163.098 207.39 163.098ZM211.367 163V152.696H212.501V157.386L212.319 157.526C212.515 156.957 212.842 156.527 213.299 156.238C213.757 155.939 214.284 155.79 214.881 155.79C216.571 155.79 217.415 156.719 217.415 158.576V163H216.281V158.632C216.281 157.979 216.151 157.503 215.889 157.204C215.628 156.896 215.217 156.742 214.657 156.742C214.004 156.742 213.481 156.943 213.089 157.344C212.697 157.745 212.501 158.287 212.501 158.968V163H211.367Z" fill="black"/>
<circle cx="103" cy="158" r="2" fill="black"/>
</svg>
