<svg width="30" height="30" viewBox="0 0 30 30" fill="none" xmlns="http://www.w3.org/2000/svg">
<circle cx="15" cy="15" r="8" fill="white"/>
<rect x="14" width="2" height="4" rx="1" fill="white"/>
<path d="M22.8787 24.3787C22.4882 23.9882 22.4882 23.355 22.8787 22.9645V22.9645C23.2692 22.5739 23.9024 22.5739 24.2929 22.9645L25.7071 24.3787C26.0976 24.7692 26.0976 25.4024 25.7071 25.7929V25.7929C25.3166 26.1834 24.6834 26.1834 24.2929 25.7929L22.8787 24.3787Z" fill="white"/>
<path d="M4.29304 5.62141C3.90252 5.23089 3.90252 4.59772 4.29304 4.2072V4.2072C4.68357 3.81668 5.31673 3.81668 5.70726 4.2072L7.12147 5.62141C7.512 6.01194 7.512 6.6451 7.12147 7.03563V7.03563C6.73095 7.42615 6.09778 7.42615 5.70726 7.03563L4.29304 5.62141Z" fill="white"/>
<path d="M5.70711 22.9645C6.09763 22.5739 6.7308 22.5739 7.12132 22.9645V22.9645C7.51184 23.355 7.51184 23.9882 7.12132 24.3787L5.70711 25.7929C5.31658 26.1834 4.68342 26.1834 4.29289 25.7929V25.7929C3.90237 25.4024 3.90237 24.7692 4.29289 24.3787L5.70711 22.9645Z" fill="white"/>
<path d="M24.3786 4.2928C24.7691 3.90228 25.4023 3.90228 25.7928 4.2928V4.2928C26.1833 4.68332 26.1833 5.31649 25.7928 5.70701L24.3786 7.12123C23.9881 7.51175 23.3549 7.51175 22.9644 7.12123V7.12123C22.5738 6.7307 22.5738 6.09754 22.9644 5.70701L24.3786 4.2928Z" fill="white"/>
<rect x="14" y="26" width="2" height="4" rx="1" fill="white"/>
<rect x="26" y="16" width="2" height="4" rx="1" transform="rotate(-90 26 16)" fill="white"/>
<rect y="16" width="2" height="4" rx="1" transform="rotate(-90 0 16)" fill="white"/>
</svg>
